<svg width="16" height="16" viewBox="0 0 16 16" fill="none" xmlns="http://www.w3.org/2000/svg">
<path d="M10.5 2V4.66667M5.5 2V4.66667M3 7.33333H13M3 4.66667C3 4.31304 3.1317 3.97391 3.36612 3.72386C3.60054 3.47381 3.91848 3.33333 4.25 3.33333H11.75C12.0815 3.33333 12.3995 3.47381 12.6339 3.72386C12.8683 3.97391 13 4.31304 13 4.66667V12.6667C13 13.0203 12.8683 13.3594 12.6339 13.6095C12.3995 13.8595 12.0815 14 11.75 14H4.25C3.91848 14 3.60054 13.8595 3.36612 13.6095C3.1317 13.3594 3 13.0203 3 12.6667V4.66667ZM5.5 10H6.75V11.3333H5.5V10Z" stroke="#8E8E93" stroke-linecap="round" stroke-linejoin="round"/>
</svg>
