<svg width="30" height="30" viewBox="0 0 30 30" fill="none" xmlns="http://www.w3.org/2000/svg">
<g clip-path="url(#clip0_1792_8588)">
<path d="M15 15.9375C16.5533 15.9375 17.8125 14.6783 17.8125 13.125C17.8125 11.5717 16.5533 10.3125 15 10.3125C13.4467 10.3125 12.1875 11.5717 12.1875 13.125C12.1875 14.6783 13.4467 15.9375 15 15.9375Z" stroke="#F8FAFC" stroke-width="2" stroke-linecap="round" stroke-linejoin="round"/>
<path d="M22.5 13.1971C22.5 20.012 15 25.3125 15 25.3125C15 25.3125 7.5 20.012 7.5 13.1971C7.5 11.1889 8.29018 9.26287 9.6967 7.84282C11.1032 6.42277 13.0109 5.625 15 5.625C16.9891 5.625 18.8968 6.42277 20.3033 7.84282C21.7098 9.26287 22.5 11.1889 22.5 13.1971Z" stroke="#F8FAFC" stroke-width="2" stroke-linecap="round" stroke-linejoin="round"/>
</g>
<defs>
<clipPath id="clip0_1792_8588">
<rect width="30" height="30" rx="15" fill="white"/>
</clipPath>
</defs>
</svg>
