<svg width="41" height="57" viewBox="0 0 41 57" fill="none" xmlns="http://www.w3.org/2000/svg">
<path fill-rule="evenodd" clip-rule="evenodd" d="M26.5161 28.5C26.5161 28.21 26.4009 27.9318 26.1958 27.7266C25.9906 27.5215 25.7124 27.4063 25.4224 27.4063H9.42007L12.2799 24.9563C12.389 24.8628 12.4787 24.7488 12.5438 24.6207C12.6089 24.4926 12.6481 24.3529 12.6592 24.2096C12.6703 24.0663 12.6531 23.9223 12.6085 23.7857C12.5639 23.649 12.4929 23.5225 12.3994 23.4134C12.306 23.3042 12.1919 23.2145 12.0638 23.1494C11.9357 23.0844 11.796 23.0451 11.6527 23.034C11.5095 23.0229 11.3654 23.0402 11.2288 23.0847C11.0922 23.1293 10.9657 23.2003 10.8565 23.2938L5.75236 27.6688C5.63229 27.7715 5.53588 27.8989 5.46979 28.0424C5.40369 28.1859 5.36946 28.3421 5.36946 28.5C5.36946 28.658 5.40369 28.8141 5.46979 28.9576C5.53588 29.1011 5.63229 29.2286 5.75236 29.3313L10.8565 33.7063C11.077 33.895 11.3634 33.9885 11.6527 33.966C11.9421 33.9436 12.2107 33.8072 12.3994 33.5867C12.5882 33.3662 12.6816 33.0798 12.6592 32.7905C12.6368 32.5011 12.5003 32.2325 12.2799 32.0438L9.42152 29.5938H25.4224C25.7124 29.5938 25.9906 29.4786 26.1958 29.2734C26.4009 29.0683 26.5161 28.7901 26.5161 28.5Z" fill="white"/>
<path d="M16.6722 22.6667C16.6722 23.6905 16.6722 24.2024 16.9187 24.5713C17.0248 24.73 17.1611 24.8662 17.3197 24.9724C17.6887 25.2188 18.2005 25.2188 19.2243 25.2188H25.4222C26.2924 25.2188 27.127 25.5645 27.7424 26.1799C28.3577 26.7952 28.7034 27.6298 28.7034 28.5001C28.7034 29.3703 28.3577 30.2049 27.7424 30.8203C27.127 31.4356 26.2924 31.7813 25.4222 31.7813H19.2243C18.2005 31.7813 17.6887 31.7813 17.3197 32.0263C17.1609 32.1329 17.0247 32.2697 16.9187 32.4288C16.6722 32.7978 16.6722 33.3097 16.6722 34.3334C16.6722 38.4576 16.6722 40.5211 17.9541 41.8015C19.2345 43.0834 21.2966 43.0834 25.4207 43.0834H26.8791C31.0062 43.0834 33.0668 43.0834 34.3487 41.8015C35.6305 40.5211 35.6305 38.4576 35.6305 34.3334V22.6667C35.6305 18.5426 35.6305 16.479 34.3487 15.1986C33.0668 13.9167 31.0047 13.9167 26.8805 13.9167H25.4222C21.2966 13.9167 19.2345 13.9167 17.9541 15.1986C16.6722 16.479 16.6722 18.5426 16.6722 22.6667Z" fill="white"/>
</svg>
