<svg width="44" height="45" viewBox="0 0 44 45" fill="none" xmlns="http://www.w3.org/2000/svg">
<path d="M21.625 30.75C21.625 31.0484 21.5065 31.3345 21.2955 31.5455C21.0845 31.7565 20.7984 31.875 20.5 31.875H14.5C14.2016 31.875 13.9155 31.7565 13.7045 31.5455C13.4935 31.3345 13.375 31.0484 13.375 30.75V14.25C13.375 13.9516 13.4935 13.6655 13.7045 13.4545C13.9155 13.2435 14.2016 13.125 14.5 13.125H20.5C20.7984 13.125 21.0845 13.2435 21.2955 13.4545C21.5065 13.6655 21.625 13.9516 21.625 14.25C21.625 14.5484 21.5065 14.8345 21.2955 15.0455C21.0845 15.2565 20.7984 15.375 20.5 15.375H15.625V29.625H20.5C20.7984 29.625 21.0845 29.7435 21.2955 29.9545C21.5065 30.1655 21.625 30.4516 21.625 30.75ZM31.7959 21.7041L28.0459 17.9541C27.8346 17.7427 27.5479 17.624 27.2491 17.624C26.9502 17.624 26.6635 17.7427 26.4522 17.9541C26.2408 18.1654 26.1221 18.4521 26.1221 18.7509C26.1221 19.0498 26.2408 19.3365 26.4522 19.5478L28.2812 21.375H20.5C20.2016 21.375 19.9155 21.4935 19.7045 21.7045C19.4935 21.9155 19.375 22.2016 19.375 22.5C19.375 22.7984 19.4935 23.0845 19.7045 23.2955C19.9155 23.5065 20.2016 23.625 20.5 23.625H28.2812L26.4513 25.4541C26.2399 25.6654 26.1212 25.9521 26.1212 26.2509C26.1212 26.5498 26.2399 26.8365 26.4513 27.0478C26.6626 27.2592 26.9492 27.3779 27.2481 27.3779C27.547 27.3779 27.8337 27.2592 28.045 27.0478L31.795 23.2978C31.8999 23.1934 31.9832 23.0692 32.0401 22.9325C32.097 22.7958 32.1263 22.6492 32.1264 22.5011C32.1264 22.3531 32.0973 22.2064 32.0406 22.0697C31.9839 21.9329 31.9008 21.8086 31.7959 21.7041Z" fill="#002161"/>
</svg>
