<svg width="30" height="30" viewBox="0 0 30 30" fill="none" xmlns="http://www.w3.org/2000/svg">
<path d="M17.8168 16.8555C17.9131 16.7914 18.0239 16.7523 18.1392 16.7419C18.2544 16.7314 18.3705 16.7498 18.4768 16.7955L22.5777 18.6329C22.7159 18.692 22.8313 18.7943 22.9065 18.9244C22.9818 19.0545 23.0129 19.2055 22.9951 19.3547C22.86 20.3643 22.3629 21.2905 21.596 21.9611C20.8292 22.6316 19.845 23.0008 18.8264 23C15.6898 23 12.6817 21.754 10.4639 19.5361C8.24599 17.3183 7 14.3102 7 11.1736C6.99922 10.155 7.36843 9.17078 8.03895 8.40396C8.70947 7.63715 9.63567 7.13996 10.6453 7.00486C10.7945 6.98713 10.9455 7.01821 11.0756 7.09345C11.2057 7.1687 11.308 7.28405 11.3671 7.42226L13.2045 11.5267C13.2496 11.6321 13.268 11.7471 13.258 11.8613C13.248 11.9755 13.2099 12.0855 13.1471 12.1815L11.2888 14.3911C11.2229 14.4906 11.1839 14.6054 11.1757 14.7245C11.1674 14.8435 11.1902 14.9627 11.2418 15.0703C11.961 16.5425 13.4828 18.046 14.9593 18.7582C15.0675 18.8095 15.1872 18.8318 15.3066 18.8228C15.426 18.8138 15.541 18.7739 15.6402 18.7069L17.8168 16.8555Z" stroke="#F8FAFC" stroke-width="2" stroke-linecap="round" stroke-linejoin="round"/>
</svg>
