<svg width="209" height="63" viewBox="0 0 209 63" fill="none" xmlns="http://www.w3.org/2000/svg">
<path d="M18.375 41.4062V53H4.6875V14.0938H18.375V27.9062C21.1458 26.4688 23.7188 24.7188 26.0938 22.6562C28.4896 20.5938 29.6875 18.5312 29.6875 16.4688C29.6875 14.7604 29.0938 13.6875 27.9062 13.25C26.7396 12.7917 25.0938 12.5417 22.9688 12.5H2.125L5.3125 0.71875H26.5625C32.5208 0.71875 36.8646 2.10417 39.5938 4.875C42.3438 7.64583 43.7188 11.0625 43.7188 15.125C43.7188 17.3125 43.2917 19.5 42.4375 21.6875C41.5833 23.875 40.1979 26.0833 38.2812 28.3125C36.3646 30.5417 33.7604 32.7708 30.4688 35C27.1979 37.2292 23.1667 39.3646 18.375 41.4062ZM61.2675 0.71875V53H47.58V0.71875H61.2675ZM94.5038 0.71875L97.6913 12.5H86.1913C84.4621 12.5 83.1808 12.6146 82.3475 12.8438C81.535 13.0729 81.1288 13.5312 81.1288 14.2188C81.1288 14.6354 81.2329 15.0625 81.4413 15.5C81.6704 15.9375 81.9621 16.3542 82.3163 16.75C82.6704 17.1458 83.0142 17.5208 83.3475 17.875L92.91 28.4375C95.035 30.7708 96.6392 32.8542 97.7225 34.6875C98.8058 36.5 99.3475 38.5729 99.3475 40.9062C99.3475 42.2604 99.1392 43.6146 98.7225 44.9688C98.3058 46.3021 97.5767 47.5833 96.535 48.8125C95.4933 50.0417 94.035 51.0521 92.16 51.8438C90.3058 52.6146 88.0142 53 85.285 53H69.3475L66.16 41.2188H78.5663C80.2121 41.2188 81.4621 41.1042 82.3163 40.875C83.1913 40.6458 83.6288 40.1875 83.6288 39.5C83.6288 38.8542 83.4308 38.2604 83.035 37.7188C82.6392 37.1771 82.0871 36.5521 81.3788 35.8438L72.0975 25.3438C70.5767 23.6146 69.41 22.2083 68.5975 21.125C67.8058 20.0208 67.1183 18.7708 66.535 17.375C65.9725 15.9583 65.6913 14.4375 65.6913 12.8125C65.6913 10.9583 66.1079 9.11458 66.9413 7.28125C67.7746 5.44792 69.2329 3.89583 71.3163 2.625C73.3996 1.35417 76.2225 0.71875 79.785 0.71875H94.5038ZM135.177 41.2188L131.959 53H129.615C125.323 53 121.334 52.1562 117.646 50.4688C113.959 48.7604 110.761 46.4167 108.052 43.4375C105.344 40.4375 103.261 37.0104 101.802 33.1562C100.365 29.3021 99.6462 25.3125 99.6462 21.1875C99.6462 18.4167 100.021 15.8125 100.771 13.375C101.542 10.9167 102.75 8.73958 104.396 6.84375C106.042 4.94792 108.209 3.45833 110.896 2.375C113.605 1.27083 116.834 0.71875 120.584 0.71875H131.271L134.459 12.5H123.771C122.23 12.5 120.75 12.6771 119.334 13.0312C117.938 13.3646 116.646 14.2604 115.459 15.7188C114.271 17.1771 113.677 19.4062 113.677 22.4062C113.677 25.8021 114.469 28.9479 116.052 31.8438C117.636 34.7188 119.938 37.0104 122.959 38.7188C125.98 40.4271 129.521 41.2812 133.584 41.2812C133.855 41.2604 134.094 41.25 134.302 41.25C134.532 41.2292 134.823 41.2188 135.177 41.2188ZM169.226 0.71875L172.414 12.5H151.383V20.2188H170.508L167.32 32H151.383V41.2188H173.82L170.633 53H137.664V0.71875H169.226ZM202.744 0.71875L205.931 12.5H194.431C192.702 12.5 191.421 12.6146 190.587 12.8438C189.775 13.0729 189.369 13.5312 189.369 14.2188C189.369 14.6354 189.473 15.0625 189.681 15.5C189.91 15.9375 190.202 16.3542 190.556 16.75C190.91 17.1458 191.254 17.5208 191.587 17.875L201.15 28.4375C203.275 30.7708 204.879 32.8542 205.962 34.6875C207.046 36.5 207.587 38.5729 207.587 40.9062C207.587 42.2604 207.379 43.6146 206.962 44.9688C206.546 46.3021 205.817 47.5833 204.775 48.8125C203.733 50.0417 202.275 51.0521 200.4 51.8438C198.546 52.6146 196.254 53 193.525 53H177.587L174.4 41.2188H186.806C188.452 41.2188 189.702 41.1042 190.556 40.875C191.431 40.6458 191.869 40.1875 191.869 39.5C191.869 38.8542 191.671 38.2604 191.275 37.7188C190.879 37.1771 190.327 36.5521 189.619 35.8438L180.337 25.3438C178.817 23.6146 177.65 22.2083 176.837 21.125C176.046 20.0208 175.358 18.7708 174.775 17.375C174.212 15.9583 173.931 14.4375 173.931 12.8125C173.931 10.9583 174.348 9.11458 175.181 7.28125C176.015 5.44792 177.473 3.89583 179.556 2.625C181.64 1.35417 184.462 0.71875 188.025 0.71875H202.744Z" fill="url(#paint0_linear_8_238)"/>
<defs>
<linearGradient id="paint0_linear_8_238" x1="-3.75874e-09" y1="33.5" x2="197.451" y2="32.7056" gradientUnits="userSpaceOnUse">
<stop stop-color="#002161"/>
<stop offset="1" stop-color="#0044C7"/>
</linearGradient>
</defs>
</svg>
