<svg width="291" height="72" viewBox="0 0 291 72" fill="none" xmlns="http://www.w3.org/2000/svg">
<g clip-path="url(#clip0_1118_18146)">
<path d="M30.3844 6.80679C30.506 6.79166 30.6276 6.81658 30.7496 6.81614C31.0853 6.82882 31.4207 6.86709 31.7573 6.86887C31.7856 6.87376 31.8124 6.88644 31.8422 6.88733C31.9911 6.88822 32.1391 6.91448 32.2884 6.90469C32.5018 6.93206 32.7176 6.93851 32.9327 6.9394C32.9907 6.95186 33.0491 6.97211 33.1098 6.96232C33.1369 6.96343 33.1731 6.94118 33.1904 6.97366C33.2042 6.96476 33.218 6.95586 33.2329 6.94719C33.2524 6.98679 33.2973 6.97211 33.3331 6.97478C33.432 6.96966 33.528 7.0037 33.6273 6.99747C33.858 6.9879 34.086 7.02706 34.316 7.03974C34.3358 7.03863 34.3558 7.03641 34.3762 7.03329C34.4751 7.12785 34.4496 7.28338 34.4949 7.40397C34.5302 7.48741 34.5291 7.57885 34.5473 7.66629C34.5684 7.78199 34.6127 7.8919 34.6302 8.00849C34.6429 8.09615 34.674 8.17937 34.6967 8.26458C34.7071 8.35959 34.7258 8.4537 34.7587 8.54359C34.7904 8.69333 34.8151 8.84619 34.8644 8.9917C34.9429 9.34369 35.0111 9.69812 35.1044 10.0468C35.1378 10.1331 35.1329 10.2283 35.1676 10.3142C35.1938 10.3892 35.2131 10.4668 35.2171 10.5465C35.222 10.6304 35.2576 10.7076 35.274 10.7892C35.3067 10.9432 35.3462 11.0954 35.384 11.248C35.4996 11.2707 35.6171 11.2887 35.7289 11.3283C35.7987 11.3517 35.8742 11.351 35.9442 11.3762C36.106 11.4289 36.2733 11.4603 36.4393 11.4974C36.5053 11.5379 36.58 11.5562 36.6571 11.5609C36.8071 11.6345 36.9791 11.6405 37.1322 11.7066C37.2996 11.7526 37.458 11.8325 37.6322 11.8519C37.7287 11.9246 37.8591 11.9211 37.9662 11.9736C38.0389 12.0132 38.126 12.0145 38.1958 12.0597C38.264 12.0891 38.3371 12.112 38.4124 12.1129C38.4467 12.1703 38.5187 12.1727 38.5756 12.1952C38.7027 12.0179 38.8904 11.8979 39.0209 11.7228C39.0667 11.6588 39.1389 11.6205 39.1878 11.5589C39.2644 11.465 39.3633 11.3926 39.4382 11.297C39.5153 11.2031 39.6151 11.1319 39.6938 11.0393C39.8131 10.9003 39.958 10.7835 40.0684 10.6371C40.1276 10.5857 40.1862 10.5334 40.238 10.4742C40.3227 10.381 40.424 10.3035 40.5009 10.2034C40.5509 10.128 40.63 10.0801 40.6909 10.0147C40.8378 9.85765 40.9956 9.71103 41.1349 9.54705C41.2064 9.47785 41.2836 9.41333 41.3482 9.33723C41.3776 9.30386 41.4004 9.2627 41.4427 9.24334C41.5007 9.17125 41.5782 9.11607 41.632 9.03909C41.6587 8.99904 41.704 9.03842 41.7362 9.04932C41.8131 9.09182 41.9091 9.10606 41.9664 9.17815C42.0136 9.19662 42.0702 9.19906 42.1084 9.23622C42.1684 9.30163 42.262 9.31432 42.3329 9.36505C42.3851 9.40732 42.4662 9.39842 42.5067 9.4556L42.5173 9.43491C42.5798 9.51011 42.6787 9.53526 42.7602 9.58376C42.8269 9.62181 42.9033 9.64228 42.9658 9.689C43.0427 9.74262 43.1282 9.78178 43.2173 9.81093C43.2591 9.84764 43.3053 9.87723 43.3584 9.89614C43.6262 10.0339 43.89 10.1794 44.1578 10.3176C44.2484 10.3358 44.3118 10.4112 44.3996 10.4381C44.6191 10.5574 44.84 10.6791 45.0664 10.7888C45.1149 10.8231 45.1811 10.8364 45.2169 10.8865C45.168 11.0647 45.1773 11.2558 45.1078 11.4285C45.0913 11.56 45.0713 11.6912 45.0344 11.819C45.03 11.9467 44.9798 12.065 44.9676 12.1916C44.9333 12.2833 44.9338 12.3821 44.9069 12.4755C44.8991 12.5105 44.8849 12.5485 44.9056 12.5823C44.8867 12.634 44.8584 12.6836 44.8564 12.7399C44.8476 12.8333 44.81 12.9216 44.8076 13.016C44.8069 13.0878 44.7596 13.151 44.768 13.2233C44.7709 13.2683 44.7407 13.3063 44.7356 13.3499C44.7189 13.4708 44.6967 13.5907 44.6736 13.7102C44.6362 13.7907 44.6447 13.881 44.6196 13.9649C44.5924 14.0564 44.6096 14.1583 44.5596 14.2426C44.5327 14.3923 44.5211 14.5459 44.4727 14.6907C44.4667 14.7868 44.4307 14.8778 44.4267 14.9739C44.4258 15.05 44.3782 15.1148 44.3749 15.1907C44.5118 15.2679 44.6329 15.37 44.7693 15.4485C44.7702 15.4554 44.7718 15.4697 44.7727 15.4768C44.8378 15.4999 44.888 15.5504 44.9467 15.5862C45.0413 15.6626 45.146 15.726 45.2367 15.8076C45.3856 15.9064 45.5229 16.0203 45.6636 16.1309C45.7784 16.2075 45.8787 16.3031 45.9891 16.3857C46.0529 16.4235 46.0989 16.4825 46.1569 16.5278C46.2864 16.6188 46.4022 16.7272 46.5289 16.8222C46.6651 16.9617 46.8229 17.0772 46.9687 17.206C47.0493 17.2614 47.1033 17.3598 47.1953 17.3962C47.3069 17.3642 47.4047 17.2988 47.5153 17.2639C47.6271 17.2307 47.7178 17.1493 47.8327 17.1246C48.0138 17.0547 48.1873 16.9651 48.3678 16.8936C48.4393 16.8745 48.5016 16.8336 48.5709 16.8077C48.6662 16.7512 48.7758 16.7261 48.8722 16.6711C49.0142 16.6282 49.1418 16.5501 49.2813 16.5C49.644 16.3556 49.9927 16.1799 50.3571 16.0406C50.4956 15.9749 50.6387 15.9189 50.7756 15.8495C50.8593 15.8199 50.9038 15.9093 50.9456 15.9647C51.382 16.4765 51.8049 16.9995 52.2429 17.5102C52.4216 17.7387 52.6211 17.95 52.7998 18.179C52.9773 18.387 53.1471 18.6017 53.3271 18.8078C53.3531 18.8456 53.3924 18.8825 53.3964 18.9306C53.3642 18.9875 53.3276 19.0421 53.2989 19.101C53.2302 19.1495 53.2111 19.2338 53.1651 19.2999C52.9742 19.5716 52.7929 19.8502 52.6142 20.1285C52.5309 20.2079 52.5058 20.327 52.4233 20.4051C52.35 20.5305 52.2564 20.6434 52.1967 20.7766C52.0778 20.9201 51.9871 21.0846 51.876 21.2339C51.7889 21.407 51.656 21.5509 51.562 21.7193C51.5164 21.8237 51.4229 21.8951 51.3758 21.9986C51.3538 22.0464 51.3107 22.0851 51.3 22.137C51.3289 22.2042 51.3882 22.2513 51.4256 22.3134C51.4607 22.3681 51.4882 22.4275 51.5256 22.4814C51.6509 22.6227 51.7256 22.7996 51.8304 22.9551C51.9031 23.0185 51.9371 23.1124 51.9918 23.1905C52.1069 23.3869 52.2258 23.581 52.3398 23.7779C52.4162 23.9699 52.5478 24.133 52.6433 24.3152C52.6878 24.4349 52.7707 24.5352 52.8184 24.6538C52.8533 24.7495 52.9313 24.8227 52.9547 24.9237C53.0193 25.0192 53.0547 25.1295 53.1184 25.2257C53.1558 25.3258 53.2109 25.4174 53.2511 25.5167C53.4113 25.4918 53.572 25.4722 53.7329 25.4506C53.8582 25.4194 53.9893 25.427 54.114 25.3907C54.2956 25.3801 54.4731 25.3367 54.6558 25.3298C54.7473 25.328 54.8331 25.2868 54.9253 25.2911C55.0471 25.288 55.162 25.2323 55.2844 25.2412C55.4833 25.207 55.6873 25.2003 55.884 25.15C55.9884 25.1456 56.0951 25.1467 56.1951 25.1095C56.306 25.1026 56.418 25.0979 56.5271 25.0712C56.6318 25.0557 56.7382 25.0523 56.8433 25.0343C56.8933 25.1411 56.938 25.2506 56.9851 25.3591C57.0702 25.5051 57.1147 25.6702 57.1931 25.8199C57.2931 26.0411 57.3893 26.264 57.4973 26.4814C57.5289 26.6051 57.612 26.7066 57.6484 26.8283C57.6887 26.9473 57.766 27.0499 57.8027 27.1705C57.946 27.4671 58.0696 27.7728 58.2104 28.0705C58.2653 28.1775 58.2964 28.2959 58.362 28.398C58.3927 28.4897 58.4302 28.5787 58.4809 28.6614C58.4738 28.7442 58.3762 28.7742 58.3318 28.8361C58.0942 29.0423 57.8533 29.2453 57.6171 29.4535C57.5116 29.5327 57.4276 29.6371 57.3187 29.7118C57.2313 29.7706 57.1696 29.8578 57.086 29.9208C56.9364 30.0385 56.7989 30.17 56.652 30.2905C56.5576 30.382 56.444 30.4519 56.356 30.55C56.2673 30.6414 56.166 30.7193 56.0656 30.7972C56.0109 30.8372 55.9749 30.8977 55.9169 30.9333C55.7004 31.102 55.5042 31.2947 55.2918 31.468C55.3551 31.63 55.3496 31.81 55.4036 31.9748C55.418 32.1335 55.4773 32.2859 55.4762 32.4465C55.4716 32.5188 55.5278 32.578 55.5229 32.6501C55.5182 32.6999 55.5442 32.7458 55.548 32.7952C55.5676 32.9456 55.5638 33.1007 55.6202 33.2437C55.6256 33.3912 55.6471 33.5379 55.6747 33.6829C55.6664 33.7392 55.6838 33.7928 55.7107 33.8422C55.702 33.8447 55.6847 33.8494 55.6758 33.8518C55.7271 33.8709 55.6911 33.9337 55.7049 33.9748C55.7267 34.1159 55.7302 34.2585 55.746 34.4003C55.7487 34.4968 55.7798 34.5898 55.7802 34.6868C55.7891 34.7634 55.7769 34.8444 55.8098 34.9171C55.9129 34.9474 56.0229 34.9567 56.1193 35.0086C56.1984 35.0571 56.308 35.0195 56.376 35.0893C56.4296 35.1223 56.5002 35.102 56.556 35.1334C56.6131 35.167 56.6824 35.159 56.7413 35.189C56.8493 35.2335 56.966 35.2518 57.0731 35.3C57.2682 35.3383 57.4491 35.4304 57.6473 35.458C57.7431 35.517 57.8598 35.5201 57.9622 35.5652C58.0833 35.5786 58.1873 35.6465 58.3064 35.6683C58.3989 35.6974 58.4938 35.7194 58.588 35.7428C58.6689 35.8026 58.78 35.7873 58.8656 35.8418C59.0538 35.8865 59.2364 35.9548 59.4236 35.9982C59.4971 36.0372 59.5798 36.0503 59.6589 36.0757C59.6944 36.1159 59.696 36.1724 59.6831 36.2227C59.7011 36.348 59.6918 36.4746 59.6836 36.6003C59.6978 36.7218 59.6676 36.8435 59.6871 36.9647C59.6627 37.6883 59.6862 38.4132 59.674 39.137C59.6756 39.27 59.6811 39.4035 59.6693 39.5364C59.6831 39.7139 59.674 39.8926 59.6811 40.0706C59.6129 40.1335 59.514 40.1364 59.4318 40.1718C59.3229 40.2159 59.1987 40.2185 59.0991 40.2837C58.834 40.3367 58.5816 40.4386 58.318 40.4975C58.2511 40.5082 58.1931 40.5431 58.1302 40.5643C57.8724 40.6175 57.6233 40.7051 57.3711 40.7781C57.1102 40.8602 56.8453 40.9278 56.5842 41.0095C56.4149 41.07 56.2391 41.1089 56.068 41.1637C55.894 41.2273 55.7127 41.2614 55.5391 41.3228C55.5156 41.3435 55.5173 41.3775 55.5124 41.406C55.4984 41.5388 55.4509 41.6674 55.4491 41.8016C55.4353 41.8712 55.4098 41.9384 55.4027 42.0094C55.3864 42.1683 55.3271 42.3193 55.3156 42.4791C55.3104 42.5696 55.2558 42.648 55.2562 42.7392C55.2484 42.8722 55.1833 42.9908 55.1633 43.1219C55.15 43.2131 55.1191 43.2999 55.0949 43.3884C55.0831 43.5199 55.0264 43.6407 55.0018 43.7696C54.986 43.8634 54.9538 43.9538 54.9404 44.0486C54.868 44.1505 54.8891 44.2849 54.8256 44.3908C54.8073 44.4413 54.802 44.4953 54.7844 44.5465C54.836 44.6317 54.9242 44.6816 54.9916 44.753C55.1344 44.892 55.3016 45.0035 55.4442 45.143C55.6487 45.3255 55.8671 45.4919 56.0642 45.683C56.3109 45.863 56.512 46.0971 56.7587 46.2775C56.934 46.4351 57.1116 46.5906 57.2922 46.7423C57.3813 46.7991 57.4411 46.8894 57.5267 46.9517C57.6293 47.0262 57.7198 47.1166 57.8227 47.1911C57.9113 47.2921 58.0164 47.3773 58.1209 47.4616C58.1311 47.495 58.114 47.5253 58.0964 47.5531C58.0413 47.6339 58.0258 47.7331 57.974 47.8161C57.9276 47.8884 57.938 47.9843 57.8789 48.0495C57.7727 48.1894 57.7549 48.3725 57.6598 48.5183C57.6389 48.6073 57.5887 48.6831 57.5531 48.7664C57.4524 48.9526 57.3813 49.1528 57.2833 49.3406C57.2209 49.4505 57.1998 49.5787 57.1342 49.6875C57.0338 49.9429 56.8927 50.1803 56.7962 50.4377C56.7131 50.5893 56.6678 50.7584 56.5818 50.9083C56.5462 50.9822 56.5367 51.0816 56.4636 51.129C56.358 51.1257 56.2544 51.1006 56.1491 51.0972C56.0531 51.1012 55.9642 51.0587 55.8693 51.0527C55.7502 51.0349 55.6307 51.0205 55.5107 51.0189C55.3953 50.9853 55.2769 50.9631 55.1569 50.9582C55.0431 50.9588 54.9342 50.9199 54.8211 50.9154C54.7231 50.915 54.632 50.8723 54.5342 50.8712C54.4113 50.8667 54.292 50.8371 54.1704 50.8251C54.0927 50.8231 54.0142 50.82 53.9407 50.7944C53.7851 50.7566 53.6233 50.7644 53.4671 50.7319C53.3856 50.7116 53.3009 50.7294 53.2202 50.7067C53.1193 50.6765 53.0138 50.6738 52.9109 50.6574C52.8191 50.6647 52.734 50.62 52.6429 50.6262C52.5478 50.5855 52.4433 50.6095 52.3462 50.5815C52.2804 50.5646 52.2129 50.5588 52.146 50.5557C52.1036 50.6522 52.0351 50.7337 51.9887 50.828C51.9262 50.9094 51.8878 51.0058 51.8267 51.0883C51.7636 51.1693 51.7189 51.2623 51.6576 51.3444C51.5871 51.4385 51.5467 51.5522 51.4651 51.6381C51.4029 51.7013 51.382 51.7905 51.3238 51.8564C51.2658 51.9394 51.2016 52.0168 51.1558 52.1076C51.0924 52.1721 51.0396 52.246 50.9962 52.3256C50.9124 52.4293 50.8336 52.5372 50.766 52.6525C50.6271 52.7851 50.5482 52.9644 50.4173 53.1037C50.3149 53.2483 50.1856 53.3734 50.0964 53.5267C50.1653 53.6065 50.1844 53.7138 50.2478 53.7977C50.2849 53.9089 50.36 54.001 50.4027 54.1103C50.4578 54.2057 50.486 54.3141 50.5538 54.4028C50.6362 54.6024 50.746 54.7887 50.8384 54.9838C50.8602 55.0579 50.9091 55.1195 50.948 55.1858C51.0282 55.3861 51.1389 55.5736 51.2329 55.7683C51.4307 56.1835 51.6509 56.5866 51.8498 57.0009C51.8584 57.0169 51.8698 57.0339 51.8809 57.0508C51.8093 57.0719 51.7718 57.14 51.7151 57.1827C51.626 57.2579 51.5553 57.3527 51.46 57.4206C51.284 57.5852 51.1116 57.753 50.9347 57.9165C50.8149 58.042 50.6749 58.1461 50.5556 58.2725C50.4531 58.3846 50.3293 58.4752 50.2318 58.5922C50.1413 58.6565 50.0671 58.7391 49.9833 58.8116C49.9202 58.8674 49.8767 58.9438 49.8038 58.9885C49.69 59.0664 49.6151 59.1872 49.5033 59.2668C49.4287 59.3249 49.3753 59.4063 49.2969 59.4599C49.2198 59.5311 49.1402 59.6003 49.0762 59.684C49.0178 59.7131 48.9704 59.7576 48.9298 59.8079C48.8764 59.7223 48.7696 59.7098 48.6958 59.6495C48.6031 59.6108 48.5298 59.5429 48.4413 59.4978C48.348 59.4437 48.246 59.4032 48.1631 59.3338C47.9018 59.2121 47.6682 59.0437 47.4171 58.9026C47.2587 58.8149 47.0924 58.7395 46.946 58.6325C46.858 58.6013 46.7936 58.5272 46.7027 58.5023C46.6556 58.4492 46.5871 58.4276 46.5296 58.39C46.3891 58.3054 46.2469 58.2235 46.102 58.1477C46.0638 58.1361 46.0387 58.1067 46.0109 58.082C45.8809 58.0467 45.7829 57.9496 45.6684 57.8851C45.4847 58.0148 45.3122 58.1601 45.1282 58.2901C44.9389 58.4436 44.7289 58.5691 44.5384 58.7208C44.4262 58.7758 44.3391 58.869 44.2267 58.9228C44.1356 58.9685 44.0707 59.0512 43.9787 59.0953C43.882 59.1433 43.7991 59.2121 43.7113 59.2735C43.266 59.5414 42.8224 59.8124 42.3744 60.0756L42.3658 60.0938C42.4142 60.3524 42.472 60.6085 42.5153 60.8679C42.53 60.9607 42.5653 61.0486 42.5831 61.1409C42.5956 61.3627 42.6671 61.5734 42.7047 61.7908C42.7053 61.8702 42.7338 61.9461 42.7433 62.0249C42.7704 62.1577 42.782 62.2945 42.8238 62.4243C42.8649 62.6632 42.9147 62.9015 42.9676 63.1387C42.9656 63.2622 42.9996 63.3821 43.0298 63.5011C43.0438 63.5465 43.03 63.6013 42.9793 63.6151C42.8722 63.6464 42.7882 63.7232 42.6858 63.7644C42.6029 63.7977 42.5296 63.85 42.4487 63.8869C42.3491 63.9234 42.2693 63.998 42.1669 64.0282C42.0524 64.1017 41.9231 64.1473 41.8109 64.2243C41.7464 64.2679 41.6658 64.2781 41.6038 64.3262C41.5216 64.3833 41.4302 64.4229 41.3409 64.4659C41.2469 64.5349 41.1296 64.5564 41.038 64.6299C40.9333 64.6659 40.8453 64.7344 40.7451 64.78C40.6316 64.8259 40.5324 64.8993 40.4191 64.9451C40.3338 65.0065 40.2327 65.0375 40.1442 65.0929C40.0391 65.1618 39.9169 65.1977 39.8147 65.2718C39.6998 65.3131 39.6029 65.3919 39.4898 65.4364C39.338 65.2993 39.2058 65.1394 39.0522 65.003C38.9513 64.8684 38.8138 64.7685 38.7084 64.6385C38.6124 64.5627 38.5413 64.4637 38.4511 64.3829C38.4149 64.3166 38.3502 64.2761 38.3 64.2227C38.1358 64.0609 37.9811 63.8901 37.8182 63.727C37.7536 63.6504 37.6647 63.5984 37.6089 63.5145C37.5542 63.4288 37.4616 63.3801 37.4013 63.3C37.3318 63.2137 37.2371 63.1525 37.1713 63.0633C37.1124 62.9796 37.0151 62.9344 36.9611 62.8474C36.8422 62.7144 36.7078 62.5967 36.5922 62.4607C36.3858 62.538 36.1633 62.562 35.9567 62.6385C35.8829 62.6757 35.7973 62.6621 35.7211 62.6906C35.5769 62.738 35.4242 62.7536 35.2813 62.8052C35.2062 62.8227 35.1278 62.8207 35.0538 62.8446C34.8929 62.8924 34.7198 62.8906 34.5642 62.9565C34.4951 62.9861 34.4182 62.9582 34.3482 62.9841C34.2413 62.9996 34.1404 63.0464 34.0318 63.0479C33.944 63.0561 33.8564 63.0664 33.7722 63.0922C33.4727 63.1387 33.1696 63.1669 32.8744 63.2384C30.9904 63.6471 29.0611 63.8558 27.1333 63.8342C26.5809 63.84 26.0293 63.8115 25.4782 63.7741C23.3331 63.6255 21.2064 63.2074 19.1651 62.5304C16.0118 61.4871 13.0665 59.8224 10.5396 57.6649C10.4664 57.5963 10.3789 57.5429 10.3158 57.4646C10.5489 57.6135 10.7616 57.7926 10.9916 57.9468C14.0782 60.1272 17.6527 61.6166 21.378 62.2498C22.4942 62.4434 23.6242 62.556 24.756 62.5991C25.0887 62.6209 25.4224 62.6063 25.7556 62.6105C26.2751 62.6172 26.794 62.596 27.3122 62.5598C27.782 62.5335 28.25 62.4866 28.7173 62.4312C28.7167 62.4009 28.7162 62.3715 28.716 62.343C28.3153 62.3769 27.9127 62.3526 27.5122 62.3815C27.3707 62.3887 27.2302 62.368 27.0891 62.3662C26.2867 62.3724 25.4858 62.3092 24.6878 62.2305C23.6462 62.1092 22.6096 61.9368 21.59 61.6898C19.5018 61.1896 17.478 60.4178 15.5882 59.3968C13.6347 58.3439 11.8236 57.0276 10.214 55.4989C9.98734 55.2659 9.73867 55.0552 9.52378 54.8107C8.93201 54.2139 8.3789 53.5792 7.85512 52.9219C6.74578 51.5278 5.78534 50.0148 4.99667 48.4166C3.95156 46.3033 3.21156 44.0397 2.80356 41.7175C2.71756 41.2687 2.66423 40.8148 2.5989 40.3629C2.52756 39.7115 2.46667 39.0584 2.44467 38.4032C2.44423 38.2174 2.41912 38.0325 2.42756 37.8467C2.43867 37.6167 2.39712 37.3875 2.41712 37.1576C2.43178 37.0168 2.42823 36.8753 2.42734 36.7342C2.42134 36.5631 2.44667 36.3932 2.44534 36.2223C2.60445 32.2955 3.70978 28.4105 5.64867 24.9925C6.60134 23.3008 7.75801 21.726 9.07223 20.2985C9.13823 20.23 9.19645 20.1499 9.2829 20.1054C9.34156 20.6191 9.41378 21.1317 9.46067 21.6468C9.44378 21.5714 9.43667 21.4942 9.42245 21.4185C9.29445 21.546 9.17889 21.6855 9.06334 21.8244C7.00667 24.2391 5.43778 27.0693 4.48556 30.0965C3.77023 32.3618 3.3989 34.736 3.38423 37.1111C3.37356 37.2377 3.3749 37.3652 3.38578 37.4918C3.39823 39.7106 3.72801 41.9277 4.3549 44.0561C5.37223 47.5224 7.19756 50.7452 9.63623 53.4074C11.398 55.3382 13.4802 56.9758 15.7696 58.2358C19.1878 60.1192 23.0773 61.1389 26.9789 61.1674C27.2524 61.193 27.526 61.1556 27.8 61.1645C29.9762 61.1147 32.1464 60.7662 34.228 60.127C36.0207 59.5756 37.7498 58.814 39.3622 57.8549C42.3138 56.1098 44.8793 53.7182 46.834 50.8994C47.836 49.4541 48.6807 47.8993 49.34 46.2684C50.4256 43.5985 51.0147 40.728 51.0782 37.8467C51.0784 37.7357 51.0738 37.6247 51.0833 37.5143C51.1044 37.2466 51.0687 36.9794 51.0782 36.712C51.0209 34.3077 50.6029 31.9103 49.83 29.6326C49.0438 27.2993 47.8884 25.0924 46.4262 23.1128C44.3907 20.3519 41.7556 18.037 38.7547 16.3781C37.1258 15.4754 35.3898 14.767 33.5953 14.2702C31.694 13.7453 29.7271 13.457 27.7556 13.4165C27.5111 13.428 27.2671 13.3884 27.0231 13.4142C25.8127 13.4191 24.602 13.5235 23.4071 13.7175C20.2387 14.2252 17.1791 15.3922 14.4713 17.1148C14.4073 17.1535 14.3436 17.1922 14.286 17.2398C14.4167 16.9553 14.5824 16.688 14.7231 16.4081C15.1578 15.5923 15.6056 14.7833 16.034 13.9638C16.2036 13.6634 16.3604 13.356 16.5264 13.0536C16.608 12.9061 16.6782 12.7519 16.772 12.6113C16.7673 12.6259 16.758 12.6555 16.7533 12.6702C17.5607 12.3109 18.3796 11.9763 19.2178 11.695C21.6798 10.8553 24.2682 10.389 26.8667 10.3018C27.1922 10.2853 27.5184 10.292 27.8444 10.2909C28.1036 10.294 28.3636 10.282 28.6222 10.3018C28.7853 10.2946 28.9476 10.3251 29.1109 10.3091C29.1427 10.195 29.2051 10.0913 29.228 9.97424C29.2453 9.88346 29.2984 9.80559 29.3269 9.71837C29.3744 9.5575 29.452 9.40732 29.4998 9.24646C29.5438 9.13588 29.5804 9.02263 29.6278 8.91338C29.656 8.76742 29.736 8.63993 29.7771 8.49798C29.8416 8.35625 29.8724 8.20251 29.9338 8.05966C29.9698 7.95175 30.0296 7.85163 30.0476 7.73816C30.0516 7.68832 30.09 7.6525 30.106 7.60666C30.1769 7.4082 30.2478 7.20951 30.3151 7.00971C30.3389 6.94229 30.3731 6.87821 30.3844 6.80679Z" fill="#002161"/>
<path d="M26.5644 23.1271C26.7396 23.0274 26.8833 22.879 27.066 22.792C27.0673 29.6813 27.0669 36.5707 27.066 43.4598C26.9384 43.4536 26.816 43.4954 26.6887 43.4872C26.0193 43.4845 25.35 43.4905 24.6807 43.4841C24.6742 41.1675 24.6798 38.8506 24.678 36.534C24.6784 32.5144 24.6767 28.4946 24.6789 24.4749C24.7624 24.3931 24.8673 24.3263 24.9671 24.2616C25.4956 23.878 26.0362 23.5113 26.5644 23.1271Z" fill="#002161"/>
<path d="M22.0793 26.2923C22.7236 25.8455 23.3591 25.3874 24.0024 24.9389C24.0129 24.9362 24.0336 24.9311 24.0438 24.9284C24.0449 31.1129 24.0449 37.2976 24.0438 43.4821C23.3818 43.4921 22.7193 43.4857 22.0571 43.4854C22.0533 37.7862 22.0573 32.087 22.0551 26.3878C22.0589 26.3559 22.0462 26.3119 22.0793 26.2923Z" fill="#002161"/>
<path d="M21.2733 26.8628C21.3164 26.8332 21.3611 26.8062 21.4076 26.7824C21.4156 27.9192 21.4087 29.0561 21.4109 30.1929C21.4109 32.655 21.4109 35.1174 21.4109 37.5795C21.4091 39.5477 21.4147 41.5161 21.4082 43.4841C20.7389 43.4892 20.0693 43.4874 19.4 43.4852C19.4002 38.3876 19.3998 33.2902 19.4 28.1926C19.4709 28.1357 19.5436 28.0805 19.6196 28.0304C19.7369 27.9583 19.838 27.8631 19.958 27.7946C20.3922 27.4789 20.8369 27.1765 21.2733 26.8628Z" fill="#002161"/>
<path d="M18.6542 28.7119C18.6867 28.6854 18.7231 28.6643 18.7629 28.6505C18.7714 29.7356 18.764 30.821 18.7665 31.9061C18.7656 35.7657 18.7685 39.6256 18.7651 43.4852C18.0505 43.4887 17.3356 43.4861 16.6209 43.4867C16.6005 43.4603 16.5778 43.436 16.5634 43.4064C16.5714 42.2058 16.5645 41.0053 16.5669 39.8047C16.5676 36.6003 16.5654 33.3957 16.568 30.1913C16.6627 30.1203 16.7585 30.0507 16.8547 29.9819C16.9662 29.9174 17.0587 29.8255 17.1707 29.7619C17.4194 29.5801 17.6751 29.4083 17.9227 29.2259C18.0145 29.172 18.0985 29.1062 18.1827 29.0417C18.2491 28.9963 18.3218 28.9602 18.3822 28.9066C18.4669 28.833 18.5676 28.7825 18.6542 28.7119Z" fill="#002161"/>
<path d="M24.2876 55.2105C24.9696 55.2149 25.6514 55.2109 26.3334 55.2125C26.4358 55.2109 26.5389 55.2174 26.6409 55.2038C26.6762 55.3958 26.7385 55.5816 26.7878 55.7701C26.8056 55.876 26.8556 55.9737 26.8671 56.0813C26.3527 56.0802 25.8382 56.0789 25.3238 56.0818C25.3214 56.2776 25.3211 56.4738 25.324 56.6698C25.7905 56.6698 26.2569 56.6696 26.7234 56.6701C26.7034 56.8358 26.6347 56.9911 26.5938 57.1527C26.5634 57.2741 26.5147 57.3901 26.4885 57.5131C26.4876 57.5496 26.4462 57.5483 26.4202 57.5492C26.0547 57.5494 25.6894 57.5469 25.3238 57.5503C25.3214 57.7685 25.3209 57.9868 25.324 58.2051C25.8829 58.2051 26.4418 58.2051 27.0007 58.2051C26.96 58.3521 26.8974 58.4923 26.8622 58.6416C26.8042 58.7853 26.776 58.9391 26.7131 59.0815C25.9025 59.085 25.0914 59.0857 24.2807 59.081C24.2742 57.9436 24.2798 56.806 24.278 55.6686C24.2836 55.516 24.2656 55.3616 24.2876 55.2105Z" fill="#002161"/>
<path d="M27.6293 55.2107C28.1676 55.2147 28.706 55.2111 29.2445 55.2125C29.5334 55.1913 29.8231 55.2051 30.1127 55.2014C29.7536 55.9939 29.4014 56.79 29.0471 57.585C28.952 57.7783 28.8782 57.9817 28.7789 58.1732C29.2049 58.1715 29.6309 58.1699 30.0571 58.1739C30.0345 58.3187 29.9676 58.4514 29.9402 58.5955C29.8922 58.7568 29.8402 58.9173 29.8027 59.0819C28.9407 59.0839 28.0785 59.0868 27.2165 59.0806C27.6494 58.0889 28.1058 57.1064 28.5365 56.1136C28.1622 56.1129 27.7878 56.1149 27.4136 56.1127C27.4233 55.9857 27.4782 55.8688 27.5005 55.7445C27.5338 55.564 27.596 55.3909 27.6293 55.2107Z" fill="#002161"/>
<path d="M21.0247 55.2172C21.5347 55.2065 22.0453 55.2156 22.5556 55.2127C22.8762 55.2038 23.2216 55.2485 23.482 55.4526C23.6298 55.5536 23.7284 55.7109 23.7978 55.8731C23.8633 56.0564 23.8618 56.2544 23.8518 56.4465C23.8282 56.7357 23.6902 57.0031 23.5062 57.223C23.3293 57.4103 23.1424 57.5921 22.9227 57.7289C22.6536 57.9011 22.3682 58.0487 22.0709 58.165C22.0436 58.1801 21.9944 58.1848 22.0009 58.228C21.9982 58.5126 22.0009 58.7973 22 59.0821C21.6593 59.0848 21.3184 59.0848 20.9778 59.0821C20.9778 58.1339 20.9778 57.1858 20.9778 56.2378C21.3184 56.2349 21.6593 56.2349 22 56.2378C22.0002 56.5535 21.9996 56.8694 22.0002 57.1851C22.1149 57.1331 22.2278 57.0755 22.3293 57C22.4936 56.8952 22.6507 56.7677 22.7476 56.5953C22.8089 56.4918 22.8164 56.361 22.7802 56.248C22.76 56.1799 22.6969 56.141 22.6333 56.1212C22.5531 56.0838 22.4633 56.086 22.3773 56.0802C21.8489 56.102 21.3191 56.0869 20.7902 56.0914C20.87 55.8003 20.946 55.5084 21.0247 55.2172Z" fill="#002161"/>
<path d="M31.7269 55.4392C32.0473 55.2846 32.4056 55.2379 32.7556 55.2121C33.0149 55.2147 33.2742 55.2096 33.5333 55.2143C33.5996 55.2895 33.5951 55.399 33.6249 55.4906C33.6849 55.6893 33.7342 55.8909 33.7896 56.0911C33.6296 56.0894 33.4693 56.0958 33.3096 56.0878C33.1398 56.0656 32.9696 56.0936 32.7996 56.092C32.5531 56.127 32.2967 56.1664 32.0862 56.3105C31.8638 56.4663 31.7013 56.7008 31.618 56.9578C31.9378 56.9607 32.2578 56.9584 32.5776 56.9589C32.578 56.7184 32.5776 56.4781 32.5778 56.2378C32.9289 56.2349 33.2805 56.2351 33.6318 56.2376C33.6342 57.1858 33.6342 58.1341 33.6318 59.0824C33.2807 59.0826 32.9291 59.0888 32.5785 59.079C32.5749 58.6721 32.5822 58.2649 32.5749 57.858C32.2211 57.8613 31.8671 57.8613 31.5136 57.858C31.5131 58.2903 31.6838 58.705 31.8991 59.0728C31.6262 59.2615 31.3469 59.4401 31.0689 59.6213C30.9587 59.4272 30.8318 59.2417 30.7485 59.0337C30.6469 58.8134 30.5689 58.582 30.5211 58.3441C30.448 58.0669 30.4518 57.7781 30.4571 57.4942C30.4896 56.9495 30.6696 56.4022 31.0218 55.9799C31.2089 55.7463 31.4527 55.5585 31.7269 55.4392Z" fill="#002161"/>
<path d="M13.9002 12.3997C15.1853 11.865 16.4656 11.3194 17.7531 10.7901C17.54 11.1719 17.346 11.5649 17.1302 11.9456C17.0093 12.1667 16.8989 12.3937 16.772 12.6113C16.6782 12.7519 16.608 12.9061 16.5265 13.0536C16.3605 13.356 16.2036 13.6634 16.034 13.9638C15.6056 14.7833 15.1578 15.5923 14.7231 16.4081C14.5825 16.688 14.4167 16.9553 14.286 17.2398C14.1471 17.5197 13.99 17.7901 13.846 18.0671C12.5373 20.5103 11.2251 22.9515 9.91735 25.3954C9.86468 25.1135 9.85201 24.8263 9.81335 24.5426C9.77157 24.3025 9.75468 24.0589 9.72623 23.8173C9.68157 23.5714 9.66557 23.3215 9.6369 23.0737C9.59001 22.8285 9.57779 22.5782 9.54579 22.331C9.50201 22.1049 9.4909 21.8746 9.46068 21.6468C9.41379 21.1317 9.34157 20.6191 9.2829 20.1054C9.19646 20.1499 9.13824 20.23 9.07224 20.2985C7.75801 21.726 6.60135 23.3008 5.64868 24.9925C3.70979 28.4105 2.60446 32.2955 2.44535 36.2223C2.44668 36.3932 2.42135 36.5631 2.42735 36.7342C2.42823 36.8753 2.43179 37.0168 2.41712 37.1576C2.39712 37.3875 2.43868 37.6167 2.42757 37.8467C2.41912 38.0325 2.44423 38.2174 2.44468 38.4032C2.46668 39.0584 2.52757 39.7115 2.5989 40.3629C2.66423 40.8148 2.71757 41.2687 2.80357 41.7175C3.21157 44.0397 3.95157 46.3033 4.99668 48.4166C5.78535 50.0148 6.74579 51.5278 7.85512 52.9219C8.3789 53.5792 8.93201 54.2139 9.52379 54.8107C9.73868 55.0552 9.98735 55.2659 10.214 55.4989C11.8236 57.0276 13.6347 58.3439 15.5882 59.3968C17.478 60.4178 19.5018 61.1896 21.59 61.6898C22.6096 61.9368 23.6462 62.1092 24.6878 62.2305C25.4858 62.3092 26.2867 62.3724 27.0891 62.3662C27.2302 62.368 27.3707 62.3887 27.5122 62.3815C27.9127 62.3526 28.3153 62.3769 28.716 62.343C28.7162 62.3715 28.7167 62.4009 28.7173 62.4312C28.25 62.4866 27.782 62.5335 27.3122 62.5598C26.794 62.596 26.2751 62.6172 25.7556 62.6105C25.4225 62.6063 25.0887 62.6209 24.756 62.5991C23.6242 62.556 22.4942 62.4434 21.378 62.2498C17.6527 61.6166 14.0782 60.1272 10.9916 57.9468C10.7616 57.7926 10.5489 57.6135 10.3158 57.4646C10.0211 57.2512 9.74135 57.0181 9.45646 56.7918C9.26157 56.6147 9.04935 56.4585 8.85646 56.2791C8.59379 56.0453 8.33446 55.8083 8.07512 55.5712C7.92779 55.4143 7.76357 55.275 7.61446 55.1199C7.46023 54.9702 7.32068 54.8064 7.16401 54.6589C6.89757 54.3695 6.63557 54.076 6.37179 53.7836C6.25779 53.6524 6.15312 53.5135 6.03712 53.3843C5.87601 53.2027 5.73646 53.004 5.57912 52.8196C5.1029 52.2059 4.64646 51.5763 4.22957 50.9208C4.1089 50.7561 4.01512 50.5739 3.90179 50.4044C2.35201 47.8762 1.24912 45.0752 0.662012 42.168C0.630901 42.0583 0.6149 41.9453 0.5969 41.8332C0.578678 41.6963 0.537123 41.5642 0.519345 41.4276C0.481567 41.131 0.4149 40.8386 0.388456 40.5405C0.344234 40.3115 0.326456 40.0788 0.3009 39.8476C0.255345 39.5837 0.246012 39.3152 0.223123 39.0489C0.215123 38.8475 0.1809 38.649 0.178012 38.4475C0.151789 37.9731 0.1409 37.4985 0.145345 37.0235C0.140234 36.5198 0.158012 36.0169 0.183789 35.5143C0.227123 35.0766 0.237789 34.6348 0.303567 34.1993C0.351567 33.6836 0.436456 33.1727 0.518456 32.6617C0.900012 30.4826 1.55801 28.351 2.48579 26.3424C2.98223 25.2646 3.54979 24.2184 4.19379 23.2216C4.38312 22.9112 4.59823 22.618 4.79779 22.3145C5.03179 21.9935 5.26268 21.6702 5.5089 21.3582C5.66668 21.1395 5.84957 20.9406 6.0109 20.7248C6.29135 20.4048 6.55712 20.0722 6.85179 19.7652C7.17512 19.4072 7.51446 19.0647 7.85757 18.7259C7.94023 18.6322 8.04579 18.5628 8.12512 18.466C7.99268 18.4215 7.8549 18.3981 7.71823 18.3708C7.5049 18.3103 7.28423 18.2811 7.07023 18.2224C6.84712 18.1792 6.6289 18.1149 6.40468 18.0758C6.25646 18.0264 6.09823 18.0177 5.9509 17.9656C5.13712 17.7925 4.32823 17.5998 3.51535 17.4225C3.36001 17.3738 3.19579 17.3633 3.04135 17.311C2.85379 17.2837 2.67357 17.2236 2.48757 17.1891C2.53268 17.1424 2.60157 17.1308 2.65823 17.1023C3.06957 16.9375 3.4749 16.7584 3.88557 16.5917C4.05846 16.508 4.24268 16.4515 4.41579 16.3683C7.57757 15.0456 10.7378 13.7215 13.9002 12.3997Z" fill="#C00000"/>
<path d="M38.5391 11.865C38.5515 11.8781 38.5515 11.8781 38.5391 11.865V11.865Z" fill="#00B0F0"/>
<path d="M18.2944 19.2744C18.3076 19.2869 18.3076 19.2869 18.2944 19.2744V19.2744Z" fill="#00B0F0"/>
<path d="M27.6449 24.9197C30.0438 26.568 32.4449 28.2131 34.8436 29.8614C35.2289 30.1186 35.6053 30.3898 35.9913 30.6463C36.3249 30.8848 36.6698 31.1076 37.0047 31.3447C37.3929 31.6088 37.7787 31.8763 38.1664 32.1413C38.1707 35.9092 38.164 39.6777 38.1698 43.4456C37.9802 43.4612 37.7898 43.4503 37.6 43.4536C37.2444 43.4538 36.8889 43.4532 36.5333 43.4538C36.1929 43.4383 35.8513 43.4383 35.5109 43.4538C34.9702 43.453 34.4293 43.4543 33.8887 43.4532C33.6593 43.4358 33.4293 43.4465 33.1998 43.4432C32.6818 43.4636 32.1629 43.4494 31.6444 43.4536C31.2 43.4579 30.7553 43.4258 30.3109 43.4536C29.4236 43.451 28.5358 43.4587 27.6484 43.4496C27.6389 42.2793 27.6471 41.1087 27.6444 39.9382C27.6447 34.932 27.6438 29.9259 27.6449 24.9197ZM29.6349 31.0497C29.4411 31.1029 29.2764 31.2493 29.1938 31.4317C29.142 31.5452 29.1296 31.6714 29.134 31.7949C29.1367 32.3222 29.1316 32.8495 29.1367 33.3768C29.566 32.9616 29.9847 32.5355 30.4122 32.1188C30.5207 32.0033 30.6444 31.9019 30.7422 31.7773C30.5147 31.5483 30.2853 31.3207 30.0553 31.094C30.0242 31.0677 29.9998 31.023 29.9544 31.0246C29.8476 31.019 29.738 31.0177 29.6349 31.0497ZM30.484 31.0179C30.7593 31.2994 31.0411 31.5746 31.3204 31.8523C31.89 32.4121 32.4487 32.9837 33.0244 33.5368C33.028 32.6973 33.034 31.8574 33.0171 31.0181C32.1729 31.0159 31.3284 31.0161 30.484 31.0179ZM31.0036 32.0423C30.6838 32.3453 30.3778 32.6621 30.064 32.9714C29.7691 33.2691 29.466 33.5588 29.1696 33.8552C29.1482 33.875 29.1309 33.8992 29.1351 33.9304C29.136 34.1059 29.1147 34.2904 29.1869 34.4563C29.292 34.7158 29.5653 34.8893 29.8436 34.8864C29.974 34.8824 30.1064 34.8978 30.2358 34.8784C30.8431 34.2828 31.4449 33.6807 32.0496 33.0822C32.0142 33.0353 31.9736 32.9934 31.9316 32.9538C31.6231 32.649 31.3158 32.3429 31.0036 32.0423ZM31.6313 34.0067C31.3393 34.3006 31.0349 34.5825 30.7511 34.884C31.2636 34.89 31.7764 34.8853 32.2891 34.8864C32.5567 34.8956 32.8313 34.7474 32.9496 34.5026C33.0253 34.3587 33.0364 34.1876 33.0118 34.0298C32.9547 33.9613 32.8853 33.9043 32.8231 33.8411C32.6473 33.6756 32.4829 33.4992 32.3078 33.3334C32.0798 33.5552 31.8573 33.7829 31.6313 34.0067Z" fill="#00B0F0"/>
<path d="M50.8502 58.2999C50.8626 58.3124 50.8626 58.3124 50.8502 58.2999V58.2999Z" fill="#00B0F0"/>
<path d="M26.364 16.4729C26.6565 16.4466 26.9496 16.4259 27.2418 16.3961C27.3351 17.5464 27.4362 18.6961 27.5322 19.8461C27.5316 19.8617 27.53 19.8926 27.5293 19.9082C27.2242 19.9282 26.92 19.9609 26.6151 19.9827C26.5838 19.7469 26.5827 19.5073 26.5605 19.2701C26.5425 18.9944 26.5236 18.719 26.5056 18.4433C26.4876 18.2582 26.4893 18.0711 26.4611 17.8873C26.2476 18.2448 26.0351 18.6031 25.8182 18.9586C25.5365 18.6498 25.2747 18.3225 24.9938 18.013C25.0596 18.709 25.1396 19.4034 25.206 20.0993C24.8989 20.1352 24.5896 20.153 24.2818 20.1825C24.1727 19.0144 24.0829 17.8446 23.9793 16.676C24.2722 16.6509 24.5649 16.6246 24.858 16.6021C25.1391 16.9724 25.4216 17.3417 25.7116 17.7051C25.9347 17.2974 26.1418 16.8812 26.364 16.4729Z" fill="black"/>
<path d="M28.2907 16.4858C28.6107 16.5069 28.9307 16.5321 29.2507 16.5554C29.1678 17.7246 29.0753 18.8932 28.996 20.0624C28.7382 20.0517 28.4816 20.0248 28.2242 20.009C28.1596 20.0012 28.0931 20.0081 28.0313 19.9854C28.1031 18.9415 28.1847 17.8982 28.2593 16.8542C28.2713 16.7314 28.2716 16.6077 28.2907 16.4858Z" fill="black"/>
<path d="M30.3867 17.0073C30.618 16.8769 30.8938 16.8331 31.1562 16.8654C31.4456 16.8874 31.7273 16.9613 32.0122 17.0131C32.048 17.0227 32.1058 17.0198 32.1071 17.0707C32.1253 17.3339 32.1476 17.5969 32.1693 17.8599C31.8969 17.8185 31.6302 17.7431 31.3565 17.7108C31.1736 17.685 30.962 17.7099 30.8298 17.8519C30.6998 18.003 30.6605 18.2077 30.6416 18.4006C30.5911 18.7955 30.7602 19.2162 31.0842 19.4514C31.3042 19.623 31.5762 19.7104 31.8471 19.7618C31.7229 20.0077 31.5896 20.2493 31.4602 20.4925C31.064 20.4148 30.6667 20.2727 30.3656 19.9936C29.7816 19.4476 29.5731 18.5612 29.8016 17.8014C29.8942 17.4794 30.0896 17.1737 30.3867 17.0073Z" fill="black"/>
<path d="M21.9618 17.1818C22.2184 17.1488 22.4902 17.1597 22.7276 17.2723C22.9764 17.3896 23.1584 17.6152 23.2693 17.8628C23.4607 18.2938 23.5302 18.7748 23.4987 19.2432C23.4789 19.4786 23.4396 19.7144 23.3556 19.9363C23.2767 20.1547 23.1593 20.3652 22.9851 20.5221C22.7671 20.7248 22.4709 20.8285 22.1773 20.8472C21.9227 20.8514 21.6713 20.7715 21.4569 20.6358C21.004 20.3492 20.6642 19.9067 20.4487 19.4198C20.3278 19.1402 20.2349 18.8416 20.2327 18.5343C20.2309 18.2778 20.3196 18.0181 20.496 17.8294C20.6729 17.6303 20.9124 17.501 21.1553 17.3996C21.4151 17.2986 21.6847 17.2178 21.9618 17.1818ZM21.8731 18.0268C21.6547 18.0691 21.418 18.1369 21.2713 18.3158C21.1747 18.4542 21.1916 18.6344 21.2313 18.7897C21.2984 19.0343 21.4078 19.2672 21.5444 19.4806C21.6638 19.653 21.7904 19.8292 21.9696 19.9443C22.0611 20.0041 22.1782 20.0344 22.2853 20.0046C22.4327 19.9496 22.5029 19.7903 22.5318 19.6461C22.6111 19.3144 22.6009 18.9664 22.5227 18.6355C22.4742 18.4418 22.4169 18.2317 22.2582 18.0973C22.1518 18.0079 22.0033 18.0092 21.8731 18.0268Z" fill="black"/>
<path d="M34.5867 18.6703C34.7616 18.4584 34.9334 18.2442 35.1122 18.0359C35.7865 18.3585 36.46 18.6823 37.1331 19.0071C36.3798 19.6426 35.6309 20.2838 34.8769 20.9186C35.0136 21.006 35.1687 21.0592 35.3111 21.1368C35.5169 21.2321 35.7198 21.3335 35.9247 21.4308C35.7809 21.6007 35.6267 21.7621 35.4809 21.9303C35.4382 21.9694 35.4096 22.0277 35.3571 22.0531C34.6538 21.724 33.9569 21.3809 33.2558 21.0472C33.4954 20.8307 33.7482 20.6291 33.9925 20.4177C34.4378 20.0402 34.8836 19.6633 35.3294 19.2861C35.3902 19.2292 35.4629 19.1842 35.516 19.1188C35.2058 18.9702 34.894 18.8249 34.5867 18.6703Z" fill="black"/>
<path d="M18.9344 18.2453C18.9662 18.2268 19 18.2119 19.0351 18.2006C19.5849 19.2332 20.1431 20.2613 20.694 21.2933C20.4267 21.4403 20.1589 21.5874 19.8873 21.7269L19.8702 21.7196C19.7084 21.4394 19.5698 21.1448 19.4031 20.8683C18.9367 20.6538 18.4624 20.4538 17.9916 20.2477C18.3338 20.8965 18.6856 21.5402 19.0307 22.1875C18.7578 22.343 18.478 22.4869 18.2016 22.6362C17.644 21.605 17.0933 20.5699 16.5353 19.5389C16.7996 19.3949 17.0651 19.2532 17.3307 19.1117C17.8231 19.3266 18.3147 19.544 18.8078 19.7576C18.6189 19.38 18.41 19.0122 18.212 18.6393C18.4491 18.5016 18.6953 18.3801 18.9344 18.2453Z" fill="black"/>
<path d="M38.0062 19.8733C38.3764 19.8515 38.726 20.0206 39.0298 20.2164C39.3607 20.4404 39.6849 20.7041 39.8738 21.0641C39.9695 21.2552 40.0098 21.4757 39.9727 21.6873C39.9369 21.9018 39.8407 22.1016 39.7202 22.2811C39.4713 22.6489 39.1407 22.9602 38.76 23.1882C38.5055 23.3397 38.2249 23.453 37.9304 23.4937C37.3231 23.6001 36.6851 23.1622 36.5553 22.5612C36.4302 21.9977 36.5718 21.4063 36.8249 20.8981C36.9978 20.5764 37.2087 20.2593 37.5149 20.0508C37.66 19.9503 37.8313 19.892 38.0062 19.8733ZM38.1622 20.8057C37.9842 20.8634 37.864 21.0182 37.764 21.168C37.5962 21.4176 37.4749 21.698 37.4064 21.9908C37.3742 22.1247 37.3658 22.2655 37.3871 22.4015C37.4098 22.5365 37.5222 22.664 37.6664 22.6623C37.7955 22.6763 37.9142 22.6166 38.0278 22.5639C38.2613 22.4487 38.4691 22.286 38.6507 22.1002C38.7951 21.9436 38.9356 21.7734 39.0036 21.568C39.046 21.4441 39.0202 21.3012 38.9382 21.1996C38.8235 21.0598 38.6802 20.943 38.5189 20.862C38.4109 20.8051 38.2822 20.7679 38.1622 20.8057Z" fill="black"/>
<path d="M15.384 20.563C15.5862 20.5256 15.8002 20.5481 15.9869 20.6362C16.29 20.7737 16.5156 21.0316 16.7056 21.2973C16.9302 21.6181 17.0911 21.9832 17.1776 22.3652C17.2429 22.6736 17.2638 23.0007 17.1685 23.3053C17.0085 23.8204 16.4789 24.1921 15.94 24.1588C15.2965 24.1207 14.7073 23.7732 14.262 23.322C13.9953 23.0474 13.7458 22.7121 13.7222 22.3161C13.6967 21.9852 13.8649 21.6775 14.0727 21.4328C14.2838 21.1974 14.5229 20.9858 14.7896 20.8153C14.9729 20.701 15.1702 20.6033 15.384 20.563ZM15.2745 21.5008C15.1262 21.5531 15.0038 21.6564 14.8869 21.7583C14.7705 21.8769 14.6509 22.0273 14.6782 22.2053C14.7089 22.4126 14.8611 22.5715 14.9967 22.7203C15.2287 22.9491 15.498 23.1486 15.804 23.2657C15.9538 23.3155 16.1445 23.3471 16.2754 23.2363C16.3642 23.1415 16.3929 22.9991 16.3694 22.8736C16.3271 22.5811 16.2214 22.2987 16.068 22.0466C15.9422 21.8544 15.8094 21.6521 15.6069 21.5333C15.5087 21.4712 15.3831 21.4657 15.2745 21.5008Z" fill="black"/>
<path d="M40.5775 22.5156C40.7767 22.3383 40.9675 22.1514 41.1718 21.9799C41.3573 22.1752 41.534 22.3792 41.7191 22.5755C41.7449 22.6051 41.7878 22.6371 41.7707 22.6823C41.6824 23.2002 41.5951 23.7184 41.5095 24.2369C41.8322 23.9612 42.132 23.6579 42.4582 23.3865C42.6604 23.6181 42.8749 23.8388 43.0753 24.072C42.2142 24.8643 41.3442 25.647 40.4851 26.4418C40.2693 26.2151 40.0604 25.9817 39.8522 25.748C40.0844 25.5527 40.3007 25.3382 40.5295 25.1384C40.5551 25.1133 40.5904 25.0895 40.5902 25.0492C40.6702 24.5548 40.7567 24.0613 40.8351 23.5665C40.2851 24.0526 39.7513 24.5568 39.2042 25.0461C39.002 24.8122 38.7904 24.5866 38.5813 24.359C38.5802 24.3272 38.6187 24.3114 38.636 24.288C39.2829 23.6969 39.9307 23.1068 40.5775 22.5156Z" fill="black"/>
<path d="M12.5649 22.8763C12.7229 22.9395 12.8747 23.0167 13.0309 23.0841C13.1291 23.1313 13.2322 23.168 13.3262 23.2236C13.1985 23.3769 13.0702 23.5296 12.9411 23.6815C12.8176 23.8317 12.688 23.9935 12.6565 24.1913C12.6331 24.3537 12.7118 24.5145 12.8296 24.6231C13.0607 24.8583 13.3749 25.0356 13.7118 25.0336C14.0147 25.0461 14.3089 24.9166 14.5373 24.7237C14.6491 24.6336 14.7391 24.521 14.8409 24.4204C14.99 24.6516 15.1409 24.8817 15.29 25.1131C15.1118 25.3075 14.9305 25.5053 14.7042 25.6455C14.1891 25.9772 13.5176 25.9977 12.9518 25.7903C12.6362 25.6766 12.3513 25.4862 12.1142 25.2499C11.8873 25.0123 11.7193 24.6988 11.7216 24.3635C11.7138 24.0791 11.8369 23.8097 11.9969 23.5812C12.168 23.332 12.3813 23.1157 12.5649 22.8763Z" fill="black"/>
<path d="M40.7413 26.8296C41.7322 26.2082 42.7278 25.5939 43.7169 24.9698C43.8144 25.101 43.8933 25.2454 43.9811 25.3836C44.272 25.8506 44.564 26.3172 44.8529 26.7855C44.6738 26.9856 44.4889 27.1807 44.3069 27.378C44.0482 26.9862 43.8129 26.5786 43.5564 26.1853C43.404 26.2829 43.2482 26.375 43.0978 26.4756C43.3156 26.8434 43.5553 27.1989 43.7689 27.5692C43.5058 27.6402 43.2431 27.7134 42.9809 27.7872C42.7909 27.4924 42.6111 27.1909 42.4227 26.895C42.2502 26.9983 42.0802 27.1057 41.9113 27.2145C42.1338 27.5756 42.3607 27.9336 42.5833 28.2945C42.6251 28.3677 42.6791 28.4345 42.7113 28.5132C42.4447 28.578 42.1791 28.6476 41.9127 28.7135C41.5218 28.0858 41.1296 27.4588 40.7413 26.8296Z" fill="black"/>
<path d="M10.5991 25.3863C10.622 25.3569 10.6364 25.2915 10.686 25.3117C10.9324 25.3834 11.1811 25.4484 11.4264 25.5236C11.2291 25.8593 11.0264 26.1917 10.8271 26.5266C10.7878 26.5958 10.7391 26.6603 10.7098 26.735C10.8662 26.8249 11.018 26.9224 11.1749 27.0112C11.3971 26.6447 11.6102 26.2723 11.8398 25.9105C11.9833 26.0753 12.1355 26.2329 12.2815 26.396C12.3162 26.4378 12.3682 26.4689 12.3871 26.5219C12.2202 26.8283 12.02 27.1171 11.8587 27.4261C12.0324 27.5227 12.1973 27.6348 12.3729 27.7283C12.6315 27.2933 12.8907 26.8583 13.154 26.426C13.3429 26.6291 13.5255 26.839 13.704 27.0514C13.3184 27.6818 12.9429 28.3183 12.5598 28.9502C11.7327 28.4476 10.8993 27.955 10.0727 27.4517C9.89844 27.3478 9.72577 27.2417 9.55066 27.1393C9.89221 26.5506 10.2513 25.9717 10.5991 25.3863Z" fill="black"/>
<path d="M8.35867 29.8818C8.62912 29.8749 8.89823 29.8983 9.16845 29.8945C9.08956 30.188 8.99734 30.4774 8.91356 30.7696C8.87134 30.9307 8.81023 31.0871 8.77867 31.2508C8.95489 31.2942 9.12467 31.3659 9.30378 31.3952C9.41778 30.9854 9.54445 30.5791 9.66045 30.1699C9.894 30.3166 10.1238 30.469 10.3556 30.6183C10.2738 30.8857 10.198 31.1551 10.1171 31.423C10.0996 31.4922 10.0691 31.559 10.0658 31.6313C10.258 31.6827 10.4467 31.7465 10.6391 31.7968C10.7793 31.3076 10.9229 30.819 11.0707 30.3319C11.2969 30.4892 11.5258 30.6432 11.7553 30.7958C11.5496 31.5076 11.3329 32.2162 11.1311 32.9291C10.0062 32.5991 8.88312 32.2634 7.75778 31.9354C7.954 31.2497 8.16267 30.5675 8.35867 29.8818Z" fill="black"/>
<path d="M44.2045 29.927C44.6785 29.8362 45.1847 29.8707 45.6262 30.0747C45.9409 30.2202 46.2085 30.4618 46.3931 30.7549C46.6507 31.1478 46.758 31.6113 46.8918 32.0554C46.6598 32.1962 46.4293 32.3399 46.1993 32.4841C46.0522 32.078 45.994 31.6319 45.7478 31.2684C45.5525 30.9762 45.2005 30.8169 44.8551 30.8149C44.9393 31.1017 45.0273 31.3876 45.1131 31.6742C45.3229 31.6088 45.5329 31.5416 45.7456 31.4862C45.832 31.7897 45.9327 32.0892 46.0129 32.3942C45.1911 32.6372 44.3718 32.8886 43.5505 33.1333C43.4502 32.8352 43.3731 32.5295 43.2713 32.2318C43.6216 32.1094 43.9836 32.0193 44.3362 31.9027C44.2393 31.5874 44.1493 31.2702 44.0478 30.9564C43.674 31.083 43.352 31.3296 43.0902 31.6204C42.8658 31.4237 42.6285 31.2415 42.4082 31.0399C42.862 30.4856 43.4936 30.0585 44.2045 29.927Z" fill="black"/>
<path d="M7.51401 33.017C8.65312 33.14 9.79312 33.2553 10.9329 33.3732C10.9598 33.3783 11.0245 33.3692 11.0089 33.4173C10.974 33.7147 10.9485 34.0133 10.914 34.3108C10.588 34.2725 10.2607 34.2372 9.93378 34.21C9.58245 34.4227 9.23823 34.6481 8.88934 34.8655C8.80623 34.9242 8.71001 34.9652 8.63623 35.0368C9.36067 35.1087 10.0842 35.1903 10.8091 35.2586C10.7953 35.5733 10.7451 35.8859 10.7211 36.2C9.55378 36.0859 8.38801 35.9555 7.22067 35.8416C7.25623 35.5414 7.28467 35.2406 7.31601 34.94C7.77489 34.6559 8.23134 34.3671 8.68645 34.0767C8.2649 34.0347 7.84401 33.9862 7.42223 33.9481C7.44512 33.6373 7.48601 33.3276 7.51401 33.017Z" fill="black"/>
<path d="M45.0689 33.1896C45.7889 33.1191 46.4991 33.3338 47.1625 33.5937C47.1885 33.9187 47.2367 34.2425 47.2549 34.568C46.9529 34.4639 46.652 34.356 46.3429 34.275C45.97 34.1737 45.5816 34.0983 45.1942 34.1406C45.018 34.1653 44.8273 34.208 44.702 34.3442C44.5898 34.4474 44.5636 34.608 44.5554 34.7531C44.5647 34.9035 44.5807 35.0537 44.5998 35.2034C45.3254 35.1345 46.0498 35.0533 46.7753 34.9812C46.9502 34.9665 47.1245 34.9364 47.3002 34.9333C47.3305 35.2435 47.3631 35.5534 47.3947 35.8636C46.4718 35.9666 45.5473 36.0556 44.6238 36.1533C44.3813 36.1731 44.14 36.2142 43.8971 36.2202C43.8525 35.7615 43.7998 35.3036 43.7585 34.8446C43.7414 34.588 43.7231 34.325 43.7896 34.0736C43.8491 33.8478 43.9836 33.64 44.1731 33.5022C44.4298 33.3062 44.7525 33.2219 45.0689 33.1896Z" fill="black"/>
<path d="M46.6007 36.5891C46.8649 36.6824 47.1329 36.766 47.3938 36.8682C47.3422 37.587 47.282 38.305 47.2289 39.0237C47.2142 39.1312 47.2209 39.2415 47.1964 39.3476C46.922 39.3866 46.6507 39.4471 46.376 39.4827C46.3922 39.1556 46.434 38.8297 46.4429 38.5024C46.1576 38.4926 45.8733 38.4592 45.5884 38.4405C44.9778 38.3965 44.368 38.3404 43.7571 38.3026C43.7889 37.9873 43.7978 37.6694 43.838 37.3556C44.7309 37.434 45.6256 37.4947 46.5189 37.5686C46.554 37.2428 46.5673 36.9149 46.6007 36.5891Z" fill="black"/>
<path d="M7.26379 36.8682C8.43491 36.8228 9.60557 36.7647 10.7767 36.7171C10.7782 37.0373 10.81 37.3563 10.8107 37.6765C10.7047 37.7032 10.5947 37.6818 10.4873 37.6985C9.42624 37.7426 8.36557 37.7922 7.30424 37.8371C7.29024 37.5141 7.27113 37.1915 7.26379 36.8682Z" fill="black"/>
<path d="M7.99779 38.5313C8.34335 38.3698 8.76268 38.39 9.09824 38.5678C9.51913 38.7785 9.83801 39.1416 10.1065 39.5199C10.1733 39.61 10.2271 39.7094 10.296 39.7984C10.5605 39.7559 10.8227 39.6959 11.0882 39.6614C11.134 39.9684 11.2033 40.2717 11.2469 40.5792C10.4013 40.728 9.55779 40.8882 8.71157 41.0326C8.65513 40.7271 8.60268 40.4208 8.54468 40.1157C8.82913 40.061 9.11535 40.0149 9.39957 39.9586C9.30001 39.8167 9.17757 39.6934 9.05179 39.5751C8.9349 39.4747 8.8009 39.3806 8.64468 39.3601C8.53379 39.3454 8.4109 39.3884 8.35246 39.4878C8.30024 39.5955 8.3269 39.717 8.34779 39.8291C8.43001 40.2928 8.51601 40.7561 8.5969 41.2202C8.32579 41.2033 8.05513 41.1761 7.78446 41.1541C7.69313 40.67 7.60824 40.1847 7.52135 39.6999C7.47801 39.4658 7.47646 39.2177 7.56579 38.9939C7.64046 38.7901 7.79957 38.6194 7.99779 38.5313Z" fill="black"/>
<path d="M43.1053 39.4678C43.2318 39.4066 43.3769 39.4302 43.5127 39.4271C43.7913 39.4547 44.0631 39.5288 44.3338 39.5991C45.2378 39.8403 46.1411 40.0837 47.0453 40.3237C46.9747 40.6323 46.8858 40.9374 46.8031 41.2433C46.4485 41.1479 46.094 41.0515 45.7389 40.9583C45.6631 41.2645 45.5707 41.5666 45.4996 41.8739C45.8525 41.9633 46.2027 42.0639 46.5558 42.1538C46.4876 42.461 46.3982 42.7636 46.3151 43.0671C45.1838 42.7681 44.0538 42.463 42.9231 42.1604C43 41.8563 43.0873 41.5548 43.1629 41.2504C43.6807 41.3817 44.196 41.5241 44.7118 41.6634C44.7956 41.3581 44.8802 41.0529 44.9547 40.7454C44.6887 40.6817 44.4262 40.6041 44.1616 40.5358C43.9069 40.4722 43.6533 40.3909 43.3893 40.3787C43.3029 40.0728 43.1985 39.7717 43.1053 39.4678Z" fill="black"/>
<path d="M8.66956 41.8754C8.97956 41.6616 9.386 41.618 9.74289 41.7268C10.1613 41.8525 10.5184 42.1229 10.8329 42.4188C10.9456 42.5116 11.0313 42.6308 11.1371 42.7309C11.3909 42.6457 11.6384 42.5425 11.8927 42.4582C12.0036 42.7458 12.104 43.0375 12.216 43.3248C12.0422 43.4071 11.8551 43.4598 11.6764 43.5319C11.05 43.7618 10.4256 43.9976 9.79778 44.2239C9.68578 43.936 9.58645 43.6436 9.47311 43.3564C9.73867 43.2393 10.0178 43.1552 10.2869 43.0464C10.0744 42.8522 9.83934 42.6591 9.55156 42.5961C9.416 42.5632 9.24267 42.6115 9.18067 42.7461C9.15178 42.8339 9.16245 42.9316 9.19622 43.0168C9.36711 43.4883 9.54623 43.9569 9.71467 44.4292C9.55089 44.4495 9.38622 44.4599 9.222 44.4764C9.11356 44.4833 9.00556 44.504 8.89645 44.4973C8.73089 44.0323 8.55445 43.5711 8.38667 43.107C8.30489 42.8733 8.25511 42.6157 8.32245 42.372C8.37045 42.1702 8.49711 41.9902 8.66956 41.8754Z" fill="black"/>
<path d="M43.3838 43.08C43.7269 43.0653 44.0713 43.1259 44.3984 43.2289C44.6467 43.3119 44.8876 43.4227 45.1018 43.5746C45.3007 43.7181 45.4704 43.9144 45.5427 44.1527C45.6318 44.4357 45.584 44.7421 45.4924 45.0182C45.3982 45.2963 45.2704 45.5638 45.1069 45.8076C45.0156 45.9496 44.9051 46.0791 44.7791 46.1912C44.5942 46.3474 44.3567 46.4571 44.1111 46.4466C43.7702 46.4564 43.4509 46.3053 43.1631 46.1373C42.7402 45.8768 42.3698 45.5199 42.1269 45.0836C42.008 44.8638 41.9162 44.619 41.9216 44.3658C41.9127 44.0399 42.0611 43.7244 42.2809 43.4899C42.5689 43.2011 42.988 43.0974 43.3838 43.08ZM43.0316 44.0018C42.9267 44.0276 42.8284 44.0924 42.7767 44.1887C42.73 44.2986 42.7564 44.4279 42.8144 44.5289C43.0318 44.8967 43.3671 45.1871 43.7484 45.3749C43.8884 45.4407 44.0429 45.4986 44.2002 45.4734C44.3631 45.4396 44.4698 45.2972 44.5504 45.1619C44.6302 45.018 44.6971 44.8613 44.7078 44.6951C44.7113 44.5636 44.6416 44.4393 44.54 44.3592C44.3549 44.2123 44.1289 44.1304 43.9053 44.0635C43.6222 43.9894 43.3209 43.9393 43.0316 44.0018Z" fill="black"/>
<path d="M11.9229 44.1086C12.1113 44.0127 12.2929 43.9013 12.4869 43.8174C12.63 44.1046 12.792 44.3823 12.9322 44.6709C12.1247 45.0936 11.3218 45.5253 10.5153 45.95C10.2902 46.0742 10.058 46.1854 9.83644 46.316C9.66999 46.0377 9.5311 45.7426 9.37555 45.4578C10.2262 45.0108 11.0729 44.557 11.9229 44.1086Z" fill="black"/>
<path d="M12.5513 45.315C12.7567 45.2443 12.9616 45.1726 13.1673 45.1036C13.5273 45.6323 13.8933 46.1572 14.2567 46.6836C13.4927 47.2205 12.7216 47.7473 11.9553 48.2811C11.7571 48.4144 11.5649 48.5572 11.3638 48.6865C11.1898 48.4242 11.0033 48.1705 10.8313 47.9073C11.2142 47.6479 11.5924 47.3813 11.9736 47.1192C12.3191 46.8751 12.6733 46.6429 13.0147 46.393C12.7807 46.0662 12.5613 45.7289 12.3242 45.4045C12.392 45.3573 12.4753 45.3435 12.5513 45.315Z" fill="black"/>
<path d="M40.6584 46.3004C40.8518 46.0512 41.038 45.796 41.2373 45.5517C41.9147 46.079 42.5993 46.5975 43.2776 47.1239C43.1431 47.3039 43.0038 47.4803 42.868 47.6594C42.8098 47.7297 42.7616 47.8083 42.6964 47.8728C42.3598 47.6005 42.0107 47.3435 41.6691 47.0774C41.3322 46.8182 40.9953 46.5594 40.6584 46.3004Z" fill="black"/>
<path d="M39.4131 47.0812C39.9669 47.05 40.5242 47.0696 41.0727 47.1568C41.3731 47.1971 41.6684 47.2663 41.9651 47.3277C41.9467 47.6329 41.9211 47.9449 41.9969 48.245C42.0289 48.3574 42.084 48.4858 42.2036 48.5265C42.2656 48.5536 42.3382 48.5332 42.3902 48.4931C42.4624 48.439 42.5111 48.3621 42.5653 48.2913C42.8758 47.8881 43.1849 47.4839 43.4944 47.0798C43.6578 47.2983 43.8242 47.5146 43.9916 47.7302C43.7516 48.0486 43.5067 48.3634 43.2647 48.6805C43.1244 48.8587 42.9947 49.0458 42.8413 49.2133C42.6576 49.41 42.4078 49.5595 42.134 49.5722C41.8513 49.5764 41.5911 49.4116 41.4169 49.1982C41.174 48.8934 41.1389 48.48 41.178 48.106C40.5882 48.0036 39.9858 47.96 39.3889 48.0165C39.4149 47.7052 39.3847 47.3922 39.4131 47.0812Z" fill="black"/>
<path d="M12.0247 49.3753C12.8849 48.6151 13.7444 47.8537 14.6049 47.0936C14.8267 47.3277 15.0329 47.5762 15.2487 47.8161C14.3718 48.5928 13.4924 49.3664 12.618 50.146C12.4053 49.9164 12.2044 49.6761 11.9931 49.4452C11.964 49.4187 12.01 49.3938 12.0247 49.3753Z" fill="black"/>
<path d="M39.1889 48.0423C39.2122 48.0063 39.2402 48.0499 39.2587 48.067C39.418 48.2555 39.608 48.415 39.7702 48.601C39.9196 48.7554 40.0776 48.9016 40.2189 49.0636C40.4267 49.2636 40.6198 49.4779 40.8251 49.6806C40.9367 49.7843 41.0311 49.9042 41.1416 50.0092C41.3196 50.1852 41.4922 50.3665 41.6631 50.5494C41.4944 50.6985 41.3418 50.8647 41.1796 51.0207C41.1064 51.0819 41.0389 51.1495 40.9731 51.2182C40.7787 51.036 40.6053 50.8336 40.4142 50.6482C40.2818 50.5209 40.1636 50.3803 40.0304 50.2537C39.8856 50.1165 39.7582 49.9627 39.6142 49.825C39.4136 49.625 39.2224 49.416 39.0193 49.2187C38.8647 49.0367 38.6802 48.8829 38.5244 48.7023C38.7356 48.4718 38.9707 48.2655 39.1889 48.0423Z" fill="black"/>
<path d="M15.4687 48.3056C15.4953 48.2724 15.5236 48.2404 15.554 48.211C15.7947 48.4104 16.0311 48.6151 16.2711 48.8155C15.9311 49.2271 15.5831 49.6321 15.2402 50.0412C15.4758 50.2491 15.7182 50.4495 15.9589 50.6518C16.2125 50.3536 16.4671 50.0564 16.714 49.7527C16.8047 49.6394 16.8956 49.5246 16.958 49.3931C17.276 49.4378 17.5944 49.481 17.9131 49.5215C17.8791 49.7711 17.7291 49.9821 17.5853 50.181C17.4013 50.4244 17.1991 50.6529 17.0036 50.8872C16.7224 51.2211 16.4402 51.5544 16.1587 51.8882C15.9202 52.1656 15.692 52.4522 15.4465 52.7232C15.2038 52.5227 14.9625 52.3203 14.7253 52.1134C14.9647 51.837 15.194 51.552 15.4362 51.2785C15.2013 51.067 14.9551 50.8678 14.7149 50.6625C14.4758 50.9408 14.2467 51.228 14.0009 51.5006C13.7587 51.305 13.5276 51.0963 13.2853 50.9007C13.5102 50.6168 13.7509 50.345 13.9829 50.0666C14.478 49.4792 14.9738 48.8927 15.4687 48.3056Z" fill="black"/>
<path d="M36.8625 50.0368C37.1091 49.8412 37.3651 49.657 37.6189 49.4706C37.9107 49.8788 38.2189 50.2751 38.5176 50.6785C38.7502 50.9991 38.994 51.3117 39.2262 51.6328C39.4933 51.4421 39.7525 51.2405 40.0169 51.0463C40.1196 51.3095 40.2353 51.5682 40.332 51.8339C39.6693 52.3214 39.0142 52.8191 38.3542 53.3102C38.2889 53.2895 38.2431 53.2287 38.1871 53.1907C38.0256 53.0509 37.8471 52.9301 37.6947 52.7811C37.9547 52.5873 38.2167 52.3955 38.4738 52.1981C37.9387 51.4761 37.3987 50.7577 36.8625 50.0368Z" fill="black"/>
<path d="M34.4254 51.457C34.5836 51.1771 34.7456 50.899 34.9111 50.6231C35.1054 50.7357 35.234 50.9277 35.3507 51.1139C35.5045 51.366 35.6327 51.6325 35.7702 51.8937C35.8354 52.0135 35.8831 52.1454 35.9656 52.2546C36.5805 52.7281 37.2056 53.1887 37.8167 53.6668C37.518 53.8241 37.2182 53.979 36.9167 54.1298C36.6007 53.8635 36.2876 53.5938 35.972 53.3273C36.0022 53.7387 36.0398 54.1496 36.0769 54.5606C35.8945 54.6649 35.7016 54.7493 35.5185 54.8523C35.4009 54.9097 35.2865 54.9735 35.1662 55.0247C35.174 54.8977 35.1522 54.7717 35.1554 54.6449C35.1605 54.4222 35.1367 54.2006 35.1442 53.9779C35.126 53.8223 35.1369 53.6659 35.132 53.5102C35.1098 53.3333 35.1345 53.1544 35.1138 52.9778C35.1045 52.8747 35.1191 52.7706 35.1065 52.6687C34.9756 52.4206 34.8522 52.1688 34.7202 51.9213C34.6329 51.76 34.5465 51.5958 34.4254 51.457Z" fill="black"/>
<path d="M19.3822 51.0135C19.6554 51.1584 19.9191 51.3206 20.1922 51.4659C20.0407 51.7645 19.8629 52.0504 19.7027 52.3452C19.444 52.8017 19.1845 53.2579 18.9285 53.716C18.6631 53.5754 18.4049 53.421 18.1427 53.2745C18.1002 53.2592 18.1374 53.216 18.1487 53.1931C18.2767 52.9611 18.4174 52.735 18.5351 52.4976C18.2625 52.4923 17.9785 52.4965 17.7256 52.6122C17.6231 52.6567 17.5314 52.7406 17.5025 52.8518C17.4654 52.9475 17.516 53.0563 17.5922 53.1175C17.6858 53.1913 17.7942 53.2418 17.8965 53.3021C18.2629 53.5115 18.632 53.7162 18.9969 53.9285C18.8091 54.126 18.6056 54.3083 18.4258 54.5134C18.1042 54.329 17.7809 54.1478 17.4591 53.9638C17.2011 53.8152 16.9191 53.6862 16.728 53.4488C16.5914 53.2861 16.5109 53.0761 16.5162 52.8629C16.5382 52.4297 16.8405 52.0435 17.2278 51.8662C17.7098 51.6392 18.2605 51.6376 18.7802 51.6884C18.85 51.6904 18.9216 51.7182 18.9909 51.7022C19.1238 51.4741 19.2494 51.2416 19.3822 51.0135Z" fill="black"/>
<path d="M29.6349 31.0497C29.738 31.0176 29.8475 31.019 29.9544 31.0245C29.9998 31.023 30.0242 31.0677 30.0553 31.094C30.2853 31.3207 30.5146 31.5483 30.7422 31.7772C30.6444 31.9018 30.5206 32.0033 30.4122 32.1188C29.9846 32.5355 29.566 32.9616 29.1366 33.3768C29.1315 32.8494 29.1366 32.3221 29.134 31.7948C29.1295 31.6713 29.142 31.5452 29.1938 31.4317C29.2764 31.2493 29.4411 31.1029 29.6349 31.0497Z" fill="#0102D9"/>
<path d="M31.0036 32.0422C31.3158 32.3428 31.6231 32.649 31.9316 32.9538C31.9736 32.9934 32.0142 33.0352 32.0496 33.0822C31.4449 33.6807 30.8431 34.2828 30.2358 34.8784C30.1065 34.8977 29.974 34.8824 29.8436 34.8864C29.5653 34.8893 29.292 34.7157 29.1869 34.4563C29.1147 34.2903 29.136 34.1059 29.1351 33.9303C29.1309 33.8992 29.1482 33.8749 29.1696 33.8551C29.466 33.5588 29.7691 33.2691 30.064 32.9714C30.3778 32.6621 30.6838 32.3453 31.0036 32.0422Z" fill="#0102D9"/>
<path d="M31.6314 34.0066C31.8574 33.7828 32.0798 33.5552 32.3078 33.3334C32.4829 33.4991 32.6474 33.6756 32.8231 33.8411C32.8854 33.9043 32.9547 33.9613 33.0118 34.0298C33.0365 34.1875 33.0253 34.3586 32.9496 34.5026C32.8313 34.7473 32.5567 34.8955 32.2891 34.8864C31.7765 34.8853 31.2636 34.89 30.7511 34.8839C31.0349 34.5825 31.3394 34.3006 31.6314 34.0066Z" fill="#0102D9"/>
<path d="M30.484 31.0179C31.3285 31.0161 32.1729 31.0159 33.0171 31.0181C33.034 31.8573 33.028 32.6973 33.0245 33.5367C32.4487 32.9836 31.89 32.412 31.3205 31.8522C31.0411 31.5746 30.7593 31.2993 30.484 31.0179Z" fill="#F7010E"/>
<path d="M27.1716 43.8663C28.648 43.8594 30.1244 43.8661 31.6011 43.863C31.5624 44.0581 31.5031 44.2481 31.4596 44.4419C31.44 44.5697 31.3882 44.6891 31.3669 44.8168C31.2409 45.3046 31.1251 45.7954 30.9982 46.2833C30.5622 46.2987 30.1251 46.2853 29.6889 46.2898C28.7333 46.2898 27.7778 46.2898 26.8222 46.2898C26.7404 46.2887 26.6578 46.2956 26.5773 46.2802C26.5918 46.156 26.646 46.0415 26.6664 45.9189C26.8131 45.325 26.9647 44.7325 27.1082 44.1382C27.1384 44.0499 27.1589 43.9587 27.1716 43.8663Z" fill="#153A29"/>
<path d="M32.0373 43.8646C33.9585 43.8617 35.8796 43.8648 37.8007 43.863C37.6493 44.1037 37.4485 44.3073 37.278 44.5338C37.0631 44.7848 36.8358 45.0247 36.6096 45.2654C36.406 45.4772 36.1845 45.6701 35.9736 45.8741C35.8527 45.9683 35.7489 46.0828 35.6216 46.169C35.5605 46.2161 35.51 46.2991 35.4227 46.29C34.3336 46.2895 33.2445 46.29 32.1556 46.2898C31.9158 46.2864 31.6758 46.2964 31.4367 46.2844C31.6351 45.4774 31.8409 44.6722 32.0373 43.8646Z" fill="#153A29"/>
<path d="M16.9347 43.8783C18.5298 43.8727 20.1251 43.8761 21.7204 43.8765C21.6431 44.2069 21.5524 44.5338 21.4776 44.8646C21.4236 45.0146 21.4111 45.1754 21.3551 45.3252C21.3031 45.5768 21.2289 45.8231 21.1753 46.0746C21.1569 46.1471 21.1351 46.219 21.1118 46.2906C20.504 46.2897 19.8962 46.2906 19.2887 46.2899C19.2371 46.2946 19.2042 46.249 19.1671 46.2223C19.0009 46.0772 18.8316 45.9364 18.6653 45.7913C18.3684 45.5179 18.0847 45.2302 17.808 44.9363C17.5067 44.5921 17.2062 44.2465 16.9347 43.8783Z" fill="#153A29"/>
<path d="M22.1527 43.8797C23.2942 43.8697 24.4362 43.8784 25.5778 43.8755C25.9644 43.8768 26.3509 43.8728 26.7375 43.8775C26.66 44.2139 26.5675 44.547 26.4907 44.8836C26.4442 45.0202 26.4304 45.1655 26.3807 45.3012C26.304 45.6307 26.2215 45.9594 26.1347 46.2864C25.0158 46.2949 23.8967 46.2876 22.7778 46.29C22.3695 46.2887 21.9613 46.2927 21.5531 46.2882C21.7327 45.5938 21.9009 44.897 22.0771 44.2014C22.1069 44.0953 22.1362 43.9887 22.1527 43.8797Z" fill="#153A29"/>
<path d="M21.4656 46.7695C22.9707 46.769 24.476 46.7681 25.9811 46.7697C25.9029 47.1437 25.7931 47.5095 25.7116 47.8828C25.6129 48.2737 25.5073 48.6631 25.4189 49.0565C25.1771 49.0104 24.9325 48.9786 24.6922 48.9239C24.5558 48.8818 24.4131 48.8665 24.2771 48.8235C23.2207 48.5592 22.1989 48.1549 21.2436 47.631C21.2587 47.5204 21.306 47.418 21.3227 47.3081C21.3407 47.214 21.3687 47.1223 21.396 47.0311C21.4133 46.9421 21.4298 46.8529 21.4656 46.7695Z" fill="#153A29"/>
<path d="M26.4207 46.7628C27.4802 46.7521 28.5402 46.7612 29.6 46.7581C30.0458 46.7614 30.4918 46.7514 30.9371 46.7632C30.8053 47.2943 30.6711 47.825 30.5409 48.3567C30.4893 48.5169 30.474 48.6876 30.4091 48.8438C30.2222 48.8696 30.0433 48.9317 29.8569 48.9586C29.6816 49.0002 29.5016 49.0149 29.326 49.054C29.1098 49.0948 28.89 49.1059 28.6731 49.141C28.2216 49.2027 27.7653 49.1771 27.3111 49.1824C26.9996 49.1784 26.6876 49.192 26.3764 49.1715C26.1978 49.1631 26.0211 49.1279 25.8431 49.1157C25.8873 48.8763 25.9631 48.6442 26.01 48.4055C26.0387 48.3167 26.0651 48.2275 26.0813 48.1358C26.1956 47.6788 26.3133 47.2222 26.4207 46.7628Z" fill="#153A29"/>
<path d="M31.3793 46.7677C31.4949 46.7454 31.6155 46.7639 31.7333 46.7583C32.7729 46.7612 33.8129 46.7521 34.8524 46.7628C34.8091 46.8148 34.7464 46.8438 34.6924 46.8827C33.6049 47.6445 32.4002 48.241 31.1311 48.6324C31.0531 48.6596 30.9744 48.6863 30.8931 48.7016C30.9233 48.5201 30.9889 48.3474 31.0211 48.1667C31.1084 47.8414 31.1878 47.5142 31.2658 47.1864C31.3149 47.0498 31.3213 46.9007 31.3793 46.7677Z" fill="#153A29"/>
<path d="M19.9258 46.7919C20.2769 46.7906 20.6278 46.7913 20.9789 46.7915C21.0133 46.7826 21.0151 46.8226 21.006 46.8447C20.9849 46.9463 20.9436 47.0427 20.9264 47.1455C20.906 47.2338 20.8947 47.3268 20.8493 47.4076C20.6709 47.3079 20.502 47.1933 20.3307 47.0825C20.1989 46.9811 20.0422 46.9125 19.9258 46.7919Z" fill="#153A29"/>
<path d="M27.2716 50.9886C27.324 51.0605 27.3258 51.1549 27.3562 51.2367C27.4102 51.3885 27.4425 51.5469 27.496 51.6991C27.5338 51.8074 27.5474 51.9236 27.5985 52.0277C27.9922 52.0317 28.3862 52.0273 28.78 52.0297C28.7458 52.0831 28.684 52.1062 28.6349 52.1434C28.3936 52.3361 28.1338 52.5047 27.8871 52.6905C27.9187 52.842 27.9771 52.9862 28.0185 53.1355C28.0816 53.3591 28.1529 53.5803 28.2151 53.8041C28.0809 53.7356 27.9742 53.627 27.8449 53.5516C27.7342 53.4873 27.6425 53.3963 27.5331 53.3304C27.4407 53.2766 27.3569 53.2098 27.2685 53.1504C27.0093 53.3293 26.7502 53.5084 26.4938 53.6913C26.4362 53.7309 26.3787 53.7707 26.3176 53.8048C26.3394 53.7118 26.3831 53.6259 26.4027 53.5324C26.426 53.4078 26.4871 53.2946 26.5087 53.1695C26.5649 53.0129 26.6082 52.852 26.6476 52.6905C26.3971 52.5159 26.1414 52.3492 25.8929 52.1714C25.8322 52.1236 25.7411 52.1051 25.7094 52.0288C26.0656 52.0297 26.4218 52.0279 26.778 52.0301C26.8131 52.0273 26.8511 52.0333 26.8851 52.0195C26.9733 51.8748 26.9958 51.7037 27.0689 51.5527C27.1029 51.4212 27.1658 51.3001 27.1996 51.1689C27.2189 51.107 27.2438 51.0469 27.2716 50.9886Z" fill="#FBD017"/>
<path d="M30.9607 50.9873C31.0378 51.1077 31.0436 51.2567 31.096 51.388C31.1478 51.5099 31.1587 51.6441 31.2096 51.7667C31.2429 51.8513 31.2516 51.9434 31.2862 52.0281C31.6804 52.031 32.0747 52.0272 32.4689 52.0297C32.4087 52.1087 32.3156 52.1523 32.2413 52.2166C32.0827 52.3145 31.946 52.4431 31.7864 52.5394C31.7133 52.5853 31.6458 52.6387 31.5811 52.6954C31.6864 53.0663 31.8029 53.4334 31.9109 53.8037C31.5864 53.5963 31.2809 53.3607 30.9591 53.1495C30.8373 53.2483 30.698 53.3224 30.5749 53.4196C30.4718 53.504 30.3522 53.5645 30.2489 53.6481C30.1764 53.7055 30.0967 53.7527 30.0187 53.8019C30.1196 53.4368 30.2342 53.0745 30.3418 52.711C30.3182 52.6645 30.2682 52.6411 30.2282 52.6124C29.9751 52.4446 29.7289 52.2669 29.4749 52.1007C29.4447 52.082 29.4196 52.058 29.3982 52.0308C29.7927 52.0259 30.1873 52.0321 30.5818 52.0279C30.7207 51.6857 30.832 51.3333 30.9607 50.9873Z" fill="#FBD017"/>
<path d="M23.5418 51.0722C23.5518 51.046 23.564 51.0211 23.578 50.9975C23.6329 51.0664 23.6416 51.1566 23.6627 51.2395C23.6811 51.3221 23.7147 51.4004 23.7398 51.4816C23.7813 51.6656 23.8549 51.8401 23.8907 52.0261C24.164 52.0339 24.4376 52.027 24.7111 52.0294C24.8369 52.0338 24.9642 52.0176 25.0893 52.039C24.9436 52.1556 24.7891 52.2606 24.6376 52.3689C24.5167 52.4733 24.374 52.5474 24.2493 52.6466C24.2336 52.6653 24.1967 52.6782 24.2022 52.7082C24.2369 52.8644 24.2833 53.0184 24.336 53.1697C24.3593 53.3012 24.4222 53.4209 24.4471 53.5522C24.466 53.6387 24.5053 53.7188 24.528 53.8045C24.2638 53.6438 24.0216 53.4494 23.7631 53.2798C23.7011 53.2358 23.6362 53.1966 23.576 53.1506C23.4251 53.2609 23.2642 53.3566 23.1167 53.4716C23.0358 53.5335 22.944 53.5793 22.8651 53.6438C22.7911 53.7039 22.7122 53.7577 22.6293 53.8051C22.6438 53.717 22.6791 53.6354 22.708 53.5522C22.7769 53.2609 22.8853 52.9808 22.9576 52.6907C22.7027 52.5227 22.454 52.3451 22.1996 52.1767C22.1456 52.1471 22.1689 52.0801 22.1636 52.031C22.5091 52.0258 22.8549 52.0327 23.2005 52.0276C23.3153 51.7095 23.4327 51.3924 23.5418 51.0722Z" fill="#FBD017"/>
</g>
<path d="M83.4844 46.2539V53.5H74.9297V29.1836H83.4844V37.8164C85.2161 36.918 86.8242 35.8242 88.3086 34.5352C89.806 33.2461 90.5547 31.957 90.5547 30.668C90.5547 29.6003 90.1836 28.9297 89.4414 28.6562C88.7122 28.3698 87.6836 28.2135 86.3555 28.1875H73.3281L75.3203 20.8242H88.6016C92.3255 20.8242 95.0404 21.6901 96.7461 23.4219C98.4648 25.1536 99.3242 27.2891 99.3242 29.8281C99.3242 31.1953 99.0573 32.5625 98.5234 33.9297C97.9896 35.2969 97.1237 36.6771 95.9258 38.0703C94.7279 39.4635 93.1003 40.8568 91.043 42.25C88.9987 43.6432 86.4792 44.9779 83.4844 46.2539ZM111.492 20.8242V53.5H102.938V20.8242H111.492ZM133.465 20.8242L135.457 28.1875H128.27C127.189 28.1875 126.388 28.2591 125.867 28.4023C125.359 28.5456 125.105 28.832 125.105 29.2617C125.105 29.5221 125.171 29.7891 125.301 30.0625C125.444 30.3359 125.626 30.5964 125.848 30.8438C126.069 31.0911 126.284 31.3255 126.492 31.5469L132.469 38.1484C133.797 39.6068 134.799 40.9089 135.477 42.0547C136.154 43.1875 136.492 44.4831 136.492 45.9414C136.492 46.7878 136.362 47.6341 136.102 48.4805C135.841 49.3138 135.385 50.1146 134.734 50.8828C134.083 51.651 133.172 52.2826 132 52.7773C130.841 53.2591 129.409 53.5 127.703 53.5H117.742L115.75 46.1367H123.504C124.533 46.1367 125.314 46.0651 125.848 45.9219C126.395 45.7786 126.668 45.4922 126.668 45.0625C126.668 44.6589 126.544 44.2878 126.297 43.9492C126.049 43.6107 125.704 43.2201 125.262 42.7773L119.461 36.2148C118.51 35.1341 117.781 34.2552 117.273 33.5781C116.779 32.888 116.349 32.1068 115.984 31.2344C115.633 30.349 115.457 29.3984 115.457 28.3828C115.457 27.224 115.717 26.0716 116.238 24.9258C116.759 23.7799 117.671 22.8099 118.973 22.0156C120.275 21.2214 122.039 20.8242 124.266 20.8242H133.465ZM160.086 46.1367L158.074 53.5H156.609C153.927 53.5 151.434 52.9727 149.129 51.918C146.824 50.8503 144.826 49.3854 143.133 47.5234C141.44 45.6484 140.138 43.5065 139.227 41.0977C138.328 38.6888 137.879 36.1953 137.879 33.6172C137.879 31.8854 138.113 30.2578 138.582 28.7344C139.064 27.1979 139.819 25.8372 140.848 24.6523C141.876 23.4674 143.23 22.5365 144.91 21.8594C146.603 21.1693 148.621 20.8242 150.965 20.8242H157.645L159.637 28.1875H152.957C151.993 28.1875 151.069 28.2982 150.184 28.5195C149.311 28.7279 148.504 29.2878 147.762 30.1992C147.02 31.1107 146.648 32.5039 146.648 34.3789C146.648 36.5013 147.143 38.4674 148.133 40.2773C149.122 42.0742 150.561 43.5065 152.449 44.5742C154.337 45.6419 156.551 46.1758 159.09 46.1758C159.259 46.1628 159.409 46.1562 159.539 46.1562C159.682 46.1432 159.865 46.1367 160.086 46.1367ZM182.566 20.8242L184.559 28.1875H171.414V33.0117H183.367L181.375 40.375H171.414V46.1367H185.438L183.445 53.5H162.84V20.8242H182.566ZM204.715 20.8242L206.707 28.1875H199.52C198.439 28.1875 197.638 28.2591 197.117 28.4023C196.609 28.5456 196.355 28.832 196.355 29.2617C196.355 29.5221 196.421 29.7891 196.551 30.0625C196.694 30.3359 196.876 30.5964 197.098 30.8438C197.319 31.0911 197.534 31.3255 197.742 31.5469L203.719 38.1484C205.047 39.6068 206.049 40.9089 206.727 42.0547C207.404 43.1875 207.742 44.4831 207.742 45.9414C207.742 46.7878 207.612 47.6341 207.352 48.4805C207.091 49.3138 206.635 50.1146 205.984 50.8828C205.333 51.651 204.422 52.2826 203.25 52.7773C202.091 53.2591 200.659 53.5 198.953 53.5H188.992L187 46.1367H194.754C195.783 46.1367 196.564 46.0651 197.098 45.9219C197.645 45.7786 197.918 45.4922 197.918 45.0625C197.918 44.6589 197.794 44.2878 197.547 43.9492C197.299 43.6107 196.954 43.2201 196.512 42.7773L190.711 36.2148C189.76 35.1341 189.031 34.2552 188.523 33.5781C188.029 32.888 187.599 32.1068 187.234 31.2344C186.883 30.349 186.707 29.3984 186.707 28.3828C186.707 27.224 186.967 26.0716 187.488 24.9258C188.009 23.7799 188.921 22.8099 190.223 22.0156C191.525 21.2214 193.289 20.8242 195.516 20.8242H204.715Z" fill="url(#paint0_linear_1118_18146)"/>
<defs>
<linearGradient id="paint0_linear_1118_18146" x1="72" y1="41.5" x2="206.999" y2="41.0905" gradientUnits="userSpaceOnUse">
<stop stop-color="#002161"/>
<stop offset="1" stop-color="#0044C7"/>
</linearGradient>
<clipPath id="clip0_1118_18146">
<rect width="60" height="59.3182" fill="white" transform="translate(0 6.34091)"/>
</clipPath>
</defs>
</svg>
