<svg width="44" height="45" viewBox="0 0 44 45" fill="none" xmlns="http://www.w3.org/2000/svg">
<path d="M31.9714 30.1884C30.686 27.9325 28.679 26.1747 26.2733 25.198C27.4696 24.3008 28.3533 23.0499 28.7992 21.6225C29.2451 20.1951 29.2305 18.6636 28.7576 17.2449C28.2847 15.8263 27.3775 14.5923 26.1643 13.7179C24.9512 12.8436 23.4937 12.373 21.9983 12.373C20.5029 12.373 19.0454 12.8436 17.8322 13.7179C16.6191 14.5923 15.7118 15.8263 15.2389 17.2449C14.766 18.6636 14.7515 20.1951 15.1974 21.6225C15.6432 23.0499 16.5269 24.3008 17.7233 25.198C15.3176 26.1747 13.3105 27.9325 12.0251 30.1884C11.9455 30.3164 11.8924 30.4592 11.8691 30.6082C11.8457 30.7572 11.8525 30.9093 11.8891 31.0556C11.9258 31.2019 11.9914 31.3394 12.0822 31.4598C12.173 31.5802 12.2871 31.6811 12.4177 31.7566C12.5483 31.832 12.6927 31.8805 12.8423 31.899C12.992 31.9175 13.1439 31.9057 13.2889 31.8644C13.4339 31.823 13.5692 31.7529 13.6866 31.6583C13.804 31.5636 13.9012 31.4463 13.9723 31.3134C15.6711 28.3771 18.6711 26.6259 21.9983 26.6259C25.3255 26.6259 28.3255 28.378 30.0242 31.3134C30.1784 31.5614 30.4231 31.7397 30.7064 31.8106C30.9897 31.8815 31.2895 31.8394 31.5423 31.6933C31.7952 31.5472 31.9814 31.3085 32.0614 31.0277C32.1415 30.7468 32.1092 30.4458 31.9714 30.1884ZM17.1233 19.5009C17.1233 18.5367 17.4092 17.5941 17.9449 16.7925C18.4805 15.9908 19.2419 15.3659 20.1327 14.9969C21.0235 14.628 22.0037 14.5314 22.9493 14.7195C23.895 14.9076 24.7636 15.3719 25.4454 16.0537C26.1272 16.7355 26.5915 17.6041 26.7796 18.5498C26.9677 19.4955 26.8712 20.4757 26.5022 21.3664C26.1332 22.2572 25.5084 23.0186 24.7067 23.5543C23.905 24.0899 22.9625 24.3759 21.9983 24.3759C20.7058 24.3744 19.4667 23.8603 18.5528 22.9464C17.6389 22.0324 17.1248 20.7933 17.1233 19.5009Z" fill="#002161"/>
</svg>
