<svg width="24" height="26" viewBox="0 0 24 26" fill="none" xmlns="http://www.w3.org/2000/svg">
<path d="M22 0.625H2C1.46957 0.625 0.960859 0.842298 0.585786 1.22909C0.210714 1.61589 0 2.14049 0 2.6875V23.3125C0 23.8595 0.210714 24.3841 0.585786 24.7709C0.960859 25.1577 1.46957 25.375 2 25.375H22C22.5304 25.375 23.0391 25.1577 23.4142 24.7709C23.7893 24.3841 24 23.8595 24 23.3125V2.6875C24 2.14049 23.7893 1.61589 23.4142 1.22909C23.0391 0.842298 22.5304 0.625 22 0.625ZM10.7075 15.7921L6.7075 19.9171C6.61463 20.013 6.50434 20.0891 6.38294 20.141C6.26154 20.1929 6.13142 20.2196 6 20.2196C5.86858 20.2196 5.73846 20.1929 5.61706 20.141C5.49566 20.0891 5.38537 20.013 5.2925 19.9171L3.2925 17.8546C3.10486 17.6611 2.99944 17.3987 2.99944 17.125C2.99944 16.8513 3.10486 16.5889 3.2925 16.3954C3.48014 16.2019 3.73464 16.0932 4 16.0932C4.26536 16.0932 4.51986 16.2019 4.7075 16.3954L6 17.7296L9.2925 14.3329C9.48014 14.1394 9.73464 14.0307 10 14.0307C10.2654 14.0307 10.5199 14.1394 10.7075 14.3329C10.8951 14.5264 11.0006 14.7888 11.0006 15.0625C11.0006 15.3362 10.8951 15.5986 10.7075 15.7921ZM10.7075 7.54211L6.7075 11.6671C6.61463 11.763 6.50434 11.8391 6.38294 11.891C6.26154 11.9428 6.13142 11.9696 6 11.9696C5.86858 11.9696 5.73846 11.9428 5.61706 11.891C5.49566 11.8391 5.38537 11.763 5.2925 11.6671L3.2925 9.60461C3.19959 9.5088 3.12589 9.39505 3.07561 9.26986C3.02532 9.14468 2.99944 9.0105 2.99944 8.875C2.99944 8.60134 3.10486 8.33889 3.2925 8.14539C3.48014 7.95189 3.73464 7.84318 4 7.84318C4.26536 7.84318 4.51986 7.95189 4.7075 8.14539L6 9.47957L9.2925 6.08289C9.48014 5.88939 9.73464 5.78068 10 5.78068C10.2654 5.78068 10.5199 5.88939 10.7075 6.08289C10.8951 6.27639 11.0006 6.53884 11.0006 6.8125C11.0006 7.08616 10.8951 7.34861 10.7075 7.54211ZM20 18.1562H14C13.7348 18.1562 13.4804 18.0476 13.2929 17.8542C13.1054 17.6608 13 17.3985 13 17.125C13 16.8515 13.1054 16.5892 13.2929 16.3958C13.4804 16.2024 13.7348 16.0938 14 16.0938H20C20.2652 16.0938 20.5196 16.2024 20.7071 16.3958C20.8946 16.5892 21 16.8515 21 17.125C21 17.3985 20.8946 17.6608 20.7071 17.8542C20.5196 18.0476 20.2652 18.1562 20 18.1562ZM20 9.90625H14C13.7348 9.90625 13.4804 9.7976 13.2929 9.6042C13.1054 9.41081 13 9.1485 13 8.875C13 8.6015 13.1054 8.33919 13.2929 8.1458C13.4804 7.9524 13.7348 7.84375 14 7.84375H20C20.2652 7.84375 20.5196 7.9524 20.7071 8.1458C20.8946 8.33919 21 8.6015 21 8.875C21 9.1485 20.8946 9.41081 20.7071 9.6042C20.5196 9.7976 20.2652 9.90625 20 9.90625Z" fill="url(#paint0_linear_1400_4614)"/>
<defs>
<linearGradient id="paint0_linear_1400_4614" x1="22.9375" y1="1.3125" x2="4.24556" y2="11.2544" gradientUnits="userSpaceOnUse">
<stop stop-color="#0396EA"/>
<stop offset="1" stop-color="#694491"/>
</linearGradient>
</defs>
</svg>
