<svg width="27" height="28" viewBox="0 0 27 28" fill="none" xmlns="http://www.w3.org/2000/svg">
<path d="M12 18.3751V26.7978C12.0005 26.8708 11.9859 26.9431 11.9573 27.0099C11.9286 27.0766 11.8866 27.1364 11.8339 27.1851C11.7811 27.2339 11.719 27.2705 11.6515 27.2926C11.5841 27.3148 11.5128 27.3219 11.4425 27.3135C9.13182 27.0208 6.9393 26.0953 5.0928 24.6332C3.24631 23.171 1.81323 21.2256 0.942505 18.999C0.916478 18.9313 0.904648 18.8587 0.907793 18.786C0.910939 18.7132 0.928989 18.642 0.960754 18.577C0.99252 18.5119 1.03728 18.4546 1.09209 18.4087C1.1469 18.3628 1.21052 18.3294 1.27875 18.3107L9.165 16.127C9.26596 16.0997 9.37267 16.1056 9.47018 16.144C9.56769 16.1824 9.65112 16.2512 9.70875 16.341C10.1863 17.0533 10.8675 17.5941 11.6575 17.8878C11.7569 17.9219 11.8434 17.9872 11.9048 18.0746C11.9663 18.162 11.9996 18.2671 12 18.3751ZM13.0075 0.593779C12.8756 0.592758 12.7447 0.618679 12.6225 0.670047C12.5003 0.721415 12.3892 0.797215 12.2955 0.893077C12.2019 0.988939 12.1276 1.10297 12.0768 1.22859C12.0261 1.35422 12 1.48895 12 1.62503V8.84378C11.998 9.11501 12.1005 9.37597 12.2849 9.56933C12.4694 9.7627 12.7207 9.87265 12.9838 9.87503C13.9282 9.87083 14.8436 10.2114 15.5679 10.8364C16.2922 11.4614 16.7787 12.3305 16.9413 13.29C17.1039 14.2494 16.932 15.2372 16.4561 16.0784C15.9803 16.9197 15.2311 17.5602 14.3413 17.8866C14.2419 17.9209 14.1555 17.9865 14.0943 18.0741C14.0331 18.1618 14.0001 18.2671 14 18.3751V26.7978C13.9996 26.8707 14.0141 26.9429 14.0427 27.0095C14.0712 27.0762 14.1132 27.1359 14.1657 27.1846C14.2183 27.2333 14.2803 27.27 14.3476 27.2922C14.4149 27.3144 14.486 27.3217 14.5563 27.3135C17.8506 26.9117 20.8714 25.2263 23 22.6025C25.1287 19.9787 26.2041 16.615 26.0062 13.2001C25.8083 9.78521 24.3519 6.57755 21.9353 4.23392C19.5188 1.8903 16.3248 0.588029 13.0075 0.593779ZM9.0075 13.6765C9.05404 13.0673 9.23123 12.4765 9.52625 11.9466V11.9375C9.62534 11.761 9.67146 11.5582 9.65878 11.3547C9.6461 11.1512 9.57518 10.9561 9.455 10.7941C9.37093 10.6827 9.26645 10.5894 9.1475 10.5196L3.10625 6.91792C2.99243 6.85023 2.86679 6.80634 2.7365 6.78876C2.60622 6.77117 2.47386 6.78024 2.34697 6.81543C2.22009 6.85063 2.10118 6.91127 1.99703 6.99388C1.89288 7.0765 1.80554 7.17946 1.74 7.2969C0.285141 9.89535 -0.283459 12.9216 0.125005 15.8924C0.134643 15.9649 0.159137 16.0344 0.19686 16.0964C0.234584 16.1584 0.284671 16.2114 0.343792 16.2519C0.402913 16.2924 0.469714 16.3194 0.539753 16.3312C0.609792 16.343 0.681464 16.3393 0.750005 16.3203L8.6525 14.1289C8.75044 14.101 8.83761 14.0426 8.90206 13.9616C8.96651 13.8806 9.00509 13.781 9.0125 13.6765H9.0075Z" fill="url(#paint0_linear_1400_20868)"/>
<defs>
<linearGradient id="paint0_linear_1400_20868" x1="24.8769" y1="1.33606" x2="4.64274" y2="12.148" gradientUnits="userSpaceOnUse">
<stop stop-color="#0396EA"/>
<stop offset="1" stop-color="#694491"/>
</linearGradient>
</defs>
</svg>
