<svg width="23" height="27" viewBox="0 0 23 27" fill="none" xmlns="http://www.w3.org/2000/svg">
<path d="M22.2075 7.61414L15.2075 0.395391C15.1146 0.299655 15.0042 0.223741 14.8829 0.171985C14.7615 0.120228 14.6314 0.0936438 14.5 0.0937503H2.5C1.96957 0.0937503 1.46086 0.311049 1.08579 0.697842C0.710714 1.08464 0.5 1.60924 0.5 2.15625V24.8438C0.5 25.3908 0.710714 25.9154 1.08579 26.3022C1.46086 26.689 1.96957 26.9062 2.5 26.9062H20.5C21.0304 26.9062 21.5391 26.689 21.9142 26.3022C22.2893 25.9154 22.5 25.3908 22.5 24.8438V8.34375C22.5001 8.20828 22.4743 8.07413 22.4241 7.94894C22.3739 7.82375 22.3003 7.70998 22.2075 7.61414ZM15.5 19.6875H7.5C7.23478 19.6875 6.98043 19.5789 6.79289 19.3855C6.60536 19.1921 6.5 18.9298 6.5 18.6562C6.5 18.3827 6.60536 18.1204 6.79289 17.927C6.98043 17.7336 7.23478 17.625 7.5 17.625H15.5C15.7652 17.625 16.0196 17.7336 16.2071 17.927C16.3946 18.1204 16.5 18.3827 16.5 18.6562C16.5 18.9298 16.3946 19.1921 16.2071 19.3855C16.0196 19.5789 15.7652 19.6875 15.5 19.6875ZM15.5 15.5625H7.5C7.23478 15.5625 6.98043 15.4539 6.79289 15.2605C6.60536 15.0671 6.5 14.8048 6.5 14.5312C6.5 14.2577 6.60536 13.9954 6.79289 13.802C6.98043 13.6086 7.23478 13.5 7.5 13.5H15.5C15.7652 13.5 16.0196 13.6086 16.2071 13.802C16.3946 13.9954 16.5 14.2577 16.5 14.5312C16.5 14.8048 16.3946 15.0671 16.2071 15.2605C16.0196 15.4539 15.7652 15.5625 15.5 15.5625ZM14.5 8.34375V2.67188L20 8.34375H14.5Z" fill="url(#paint0_linear_1400_18988)"/>
<defs>
<linearGradient id="paint0_linear_1400_18988" x1="21.526" y1="0.838542" x2="3.24692" y2="9.06511" gradientUnits="userSpaceOnUse">
<stop stop-color="#0396EA"/>
<stop offset="1" stop-color="#694491"/>
</linearGradient>
</defs>
</svg>
