<svg width="33" height="34" viewBox="0 0 33 34" fill="none" xmlns="http://www.w3.org/2000/svg">
<path d="M27.85 22.3625C27.6769 22.2286 27.4664 22.1562 27.25 22.1562H26.25V8.75C26.25 7.65598 25.8286 6.60677 25.0784 5.83318C24.3283 5.0596 23.3109 4.625 22.25 4.625H5.25C4.18913 4.625 3.17172 5.0596 2.42157 5.83318C1.67143 6.60677 1.25 7.65598 1.25 8.75C1.25 10.5044 2.50625 11.5266 2.65 11.6375C2.82262 11.7723 3.03347 11.8448 3.25 11.8438C3.45842 11.8432 3.66144 11.7754 3.83071 11.65C3.99997 11.5246 4.12702 11.3478 4.19408 11.1443C4.26114 10.9408 4.26487 10.7208 4.20475 10.515C4.14463 10.3092 4.02366 10.1279 3.85875 9.99652C3.85375 9.99008 3.25 9.48992 3.25 8.75C3.25 8.20299 3.46071 7.67839 3.83579 7.29159C4.21086 6.9048 4.71957 6.6875 5.25 6.6875C5.78043 6.6875 6.28914 6.9048 6.66421 7.29159C7.03929 7.67839 7.25 8.20299 7.25 8.75V25.25C7.25 26.344 7.67143 27.3932 8.42157 28.1668C9.17172 28.9404 10.1891 29.375 11.25 29.375H25.25C26.3109 29.375 27.3283 28.9404 28.0784 28.1668C28.8286 27.3932 29.25 26.344 29.25 25.25C29.25 23.4956 28 22.4734 27.85 22.3625ZM13.25 12.875H21.25C21.5152 12.875 21.7696 12.9836 21.9571 13.177C22.1446 13.3704 22.25 13.6327 22.25 13.9062C22.25 14.1798 22.1446 14.4421 21.9571 14.6355C21.7696 14.8289 21.5152 14.9375 21.25 14.9375H13.25C12.9848 14.9375 12.7304 14.8289 12.5429 14.6355C12.3554 14.4421 12.25 14.1798 12.25 13.9062C12.25 13.6327 12.3554 13.3704 12.5429 13.177C12.7304 12.9836 12.9848 12.875 13.25 12.875ZM12.25 18.0312C12.25 17.7577 12.3554 17.4954 12.5429 17.302C12.7304 17.1086 12.9848 17 13.25 17H21.25C21.5152 17 21.7696 17.1086 21.9571 17.302C22.1446 17.4954 22.25 17.7577 22.25 18.0312C22.25 18.3048 22.1446 18.5671 21.9571 18.7605C21.7696 18.9539 21.5152 19.0625 21.25 19.0625H13.25C12.9848 19.0625 12.7304 18.9539 12.5429 18.7605C12.3554 18.5671 12.25 18.3048 12.25 18.0312ZM25.25 27.3125H13.7137C14.0659 26.6859 14.251 25.9743 14.25 25.25C14.2502 24.9004 14.1993 24.5527 14.0988 24.2188H26.8487C27.097 24.5027 27.24 24.8679 27.2525 25.25C27.2525 25.5211 27.2007 25.7895 27.1 26.0399C26.9994 26.2903 26.8518 26.5178 26.6658 26.7093C26.4798 26.9009 26.2591 27.0527 26.0161 27.1562C25.7732 27.2597 25.5129 27.3128 25.25 27.3125Z" fill="url(#paint0_linear_1400_12112)"/>
<defs>
<linearGradient id="paint0_linear_1400_12112" x1="28.0104" y1="5.3125" x2="7.81159" y2="17.8464" gradientUnits="userSpaceOnUse">
<stop stop-color="#0396EA"/>
<stop offset="1" stop-color="#694491"/>
</linearGradient>
</defs>
</svg>
