<svg width="33" height="34" viewBox="0 0 33 34" fill="none" xmlns="http://www.w3.org/2000/svg">
<g clip-path="url(#clip0_1400_20881)">
<path d="M18.8483 7.6136C18.805 6.82636 17.9767 6.96029 17.1686 6.96029C17.7656 7.11473 18.3303 7.32961 18.8483 7.6136Z" fill="url(#paint0_linear_1400_20881)"/>
<path d="M10.2111 5.64087C7.07401 5.64087 5.63003 9.49818 8.13788 11.4382C8.99279 9.22065 10.6947 7.62839 12.9258 6.99991C12.3155 6.18027 11.3294 5.64087 10.2111 5.64087Z" fill="url(#paint1_linear_1400_20881)"/>
<path d="M3.72957 10.8344C3.85741 11.233 4.02306 11.6153 4.21984 11.9775L3.18933 12.9791C2.91259 13.2479 2.91259 13.6843 3.18933 13.9537L5.00575 15.7187C5.13803 15.8472 5.31928 15.9196 5.50819 15.9196C5.69502 15.9196 5.87505 15.8472 6.00963 15.7187L7.03899 14.7171C7.19347 14.7965 7.3647 14.8452 7.52469 14.9137C7.52469 14.9023 7.52354 14.8905 7.52354 14.8791C7.52354 14.0606 7.62032 13.2884 7.79262 12.5633C6.5498 11.7863 5.72051 10.4376 5.72051 8.89768C5.72051 6.49224 7.73478 4.53498 10.2104 4.53498C11.8867 4.53498 13.3341 5.44153 14.1067 6.76601C14.9315 6.66664 15.7063 6.66664 16.639 6.83784C16.519 6.48529 16.3779 6.14025 16.2011 5.81683L17.2316 4.81472C17.366 4.68566 17.4404 4.51015 17.4404 4.32768C17.4404 4.14515 17.366 3.96971 17.2316 3.84064L15.4161 2.07669C15.2773 1.94172 15.096 1.87475 14.9149 1.87475C14.7336 1.87475 14.5524 1.94172 14.4146 2.07669L13.3808 3.07879C13.0073 2.88659 12.6149 2.72568 12.2036 2.6042V1.18842C12.2036 0.808329 11.8879 0.5 11.4955 0.5H8.9265C8.5363 0.5 8.21718 0.808329 8.21718 1.18842V2.60413C7.80701 2.72561 7.41452 2.88652 7.03993 3.07872L6.00963 2.07773C5.87062 1.94276 5.68944 1.8758 5.50819 1.8758C5.32701 1.8758 5.14476 1.94276 5.00689 2.07718L3.18933 3.84113C3.05704 3.97075 2.9826 4.14564 2.9826 4.32873C2.9826 4.51175 3.05704 4.68671 3.18933 4.81577L4.21984 5.81731C4.02298 6.18016 3.85741 6.56192 3.73186 6.96037H2.27557C1.88315 6.96037 1.56625 7.26919 1.56625 7.64983V10.1455C1.56625 10.525 1.88315 10.8344 2.27557 10.8344H3.72957Z" fill="url(#paint2_linear_1400_20881)"/>
<path d="M25.9841 24.1881C27.1203 23.5828 27.9006 22.4241 27.9006 21.0796C27.9006 19.1174 26.2565 17.5215 24.2367 17.5215C23.5264 17.5215 22.8681 17.7277 22.3057 18.069C21.9689 19.3712 21.4386 20.6169 20.745 21.6989C22.7114 22.058 24.5156 22.9279 25.9841 24.1881Z" fill="url(#paint3_linear_1400_20881)"/>
<path d="M33.5639 19.7332C33.5639 19.3223 33.2203 18.9897 32.799 18.9897H31.2273C31.0915 18.5593 30.9115 18.1468 30.698 17.7554L31.8107 16.6745C31.9553 16.5351 32.0353 16.3462 32.0353 16.1491C32.0353 15.952 31.9553 15.763 31.8107 15.6232L29.852 13.7199C29.7031 13.5746 29.5063 13.5017 29.3108 13.5017C29.1151 13.5017 28.9194 13.5746 28.7705 13.7199L27.6555 14.8014C27.253 14.594 26.8296 14.4202 26.3849 14.289V12.7621C26.3849 12.3517 26.0436 12.019 25.6212 12.019H22.8499C22.6642 12.019 22.5008 12.0914 22.3675 12.1983C22.6009 13.0255 22.7287 13.9224 22.7287 14.8791C22.7287 15.4865 22.6799 16.1033 22.5887 16.7165C23.1044 16.5318 23.6536 16.4158 24.235 16.4158C26.8829 16.4158 29.0372 18.5081 29.0372 21.0797C29.0372 22.7233 28.1536 24.1639 26.8273 24.9949C27.7923 26.0229 28.5593 27.2426 29.0584 28.6091C29.1406 28.6367 29.2262 28.6567 29.3118 28.6567C29.5075 28.6567 29.7032 28.5844 29.8532 28.439L31.8131 26.5357C31.9565 26.3964 32.0354 26.2074 32.0354 26.0104C32.0354 25.8133 31.9565 25.6244 31.8131 25.4845L30.6981 24.403C30.9116 24.0122 31.0916 23.5995 31.2273 23.1687H32.7991C33.0014 23.1687 33.1982 23.091 33.3405 22.9505C33.4839 22.8117 33.5651 22.6223 33.5651 22.4252L33.5639 19.7332Z" fill="url(#paint4_linear_1400_20881)"/>
<path d="M27.4994 29.282C26.3109 25.8852 23.1707 23.549 19.5455 23.231C18.3316 24.4797 16.8287 25.2719 15.1267 25.2719C13.4259 25.2719 11.9218 24.4798 10.709 23.231C7.08179 23.549 3.94137 25.8852 2.75295 29.2825L2.09603 31.1609C1.90812 31.7014 1.9981 32.297 2.34055 32.7608C2.68294 33.2247 3.23434 33.5 3.82125 33.5H26.431C27.019 33.5 27.5704 33.2247 27.9129 32.7608C28.2541 32.297 28.3453 31.7014 28.1563 31.1609L27.4994 29.282Z" fill="url(#paint5_linear_1400_20881)"/>
<path d="M9.23001 14.8794C9.23001 19.0926 11.8702 23.6135 15.125 23.6135C18.3811 23.6135 21.0212 19.0926 21.0212 14.8794C21.0212 6.14588 9.23001 6.12857 9.23001 14.8794Z" fill="url(#paint6_linear_1400_20881)"/>
</g>
<defs>
<linearGradient id="paint0_linear_1400_20881" x1="18.774" y1="6.97005" x2="18.2026" y2="7.76532" gradientUnits="userSpaceOnUse">
<stop stop-color="#0396EA"/>
<stop offset="1" stop-color="#694491"/>
</linearGradient>
<linearGradient id="paint1_linear_1400_20881" x1="12.6572" y1="5.80191" x2="8.09816" y2="8.41836" gradientUnits="userSpaceOnUse">
<stop stop-color="#0396EA"/>
<stop offset="1" stop-color="#694491"/>
</linearGradient>
<linearGradient id="paint2_linear_1400_20881" x1="16.7377" y1="0.928321" x2="4.71147" y2="7.71921" gradientUnits="userSpaceOnUse">
<stop stop-color="#0396EA"/>
<stop offset="1" stop-color="#694491"/>
</linearGradient>
<linearGradient id="paint3_linear_1400_20881" x1="27.5838" y1="17.7067" x2="22.2745" y2="20.8324" gradientUnits="userSpaceOnUse">
<stop stop-color="#0396EA"/>
<stop offset="1" stop-color="#694491"/>
</linearGradient>
<linearGradient id="paint4_linear_1400_20881" x1="33.0694" y1="12.4812" x2="23.223" y2="16.116" gradientUnits="userSpaceOnUse">
<stop stop-color="#0396EA"/>
<stop offset="1" stop-color="#694491"/>
</linearGradient>
<linearGradient id="paint5_linear_1400_20881" x1="27.0909" y1="23.5162" x2="18.2479" y2="35.9164" gradientUnits="userSpaceOnUse">
<stop stop-color="#0396EA"/>
<stop offset="1" stop-color="#694491"/>
</linearGradient>
<linearGradient id="paint6_linear_1400_20881" x1="20.4992" y1="8.7475" x2="10.5058" y2="12.9744" gradientUnits="userSpaceOnUse">
<stop stop-color="#0396EA"/>
<stop offset="1" stop-color="#694491"/>
</linearGradient>
<clipPath id="clip0_1400_20881">
<rect width="32" height="33" fill="white" transform="translate(0.5 0.5)"/>
</clipPath>
</defs>
</svg>
