<svg width="30" height="28" viewBox="0 0 30 28" fill="none" xmlns="http://www.w3.org/2000/svg">
<path d="M28.9662 25.3125H27V10.875C27 10.328 26.7893 9.80342 26.4142 9.41663C26.0391 9.02983 25.5304 8.81253 25 8.81253H19.5C19.3674 8.81253 19.2402 8.86686 19.1464 8.96356C19.0527 9.06026 19 9.19141 19 9.32816V25.3125H17V2.67789C17.0033 2.35663 16.9357 2.0388 16.8023 1.74847C16.6689 1.45814 16.4732 1.20291 16.23 1.00211C15.8985 0.735575 15.494 0.583529 15.0739 0.567562C14.6539 0.551596 14.2396 0.672519 13.89 0.91316L3.89 7.78128C3.61567 7.97003 3.39086 8.2258 3.23558 8.52582C3.0803 8.82585 2.99937 9.16081 3 9.50089V25.3125H1.03375C0.775332 25.3086 0.525056 25.4057 0.333267 25.5844C0.141477 25.763 0.0224041 26.0099 -8.6613e-08 26.2755C-0.00908249 26.4165 0.0100568 26.558 0.0562288 26.6911C0.102401 26.8242 0.174619 26.9461 0.268399 27.0492C0.362178 27.1524 0.475516 27.2345 0.601371 27.2905C0.727227 27.3466 0.862912 27.3753 1 27.375H29C29.1371 27.3753 29.2728 27.3466 29.3986 27.2905C29.5245 27.2345 29.6378 27.1524 29.7316 27.0492C29.8254 26.9461 29.8976 26.8242 29.9438 26.6911C29.9899 26.558 30.0091 26.4165 30 26.2755C29.9776 26.0099 29.8585 25.763 29.6667 25.5844C29.4749 25.4057 29.2247 25.3086 28.9662 25.3125ZM8.5 22.2188C8.5003 22.3602 8.47241 22.5001 8.41807 22.6299C8.36372 22.7597 8.28408 22.8765 8.18409 22.9732C8.08409 23.07 7.96589 23.1444 7.83681 23.192C7.70773 23.2397 7.57054 23.2594 7.43375 23.25C7.17606 23.2269 6.93644 23.1039 6.76317 22.9059C6.5899 22.7078 6.49586 22.4494 6.5 22.1827V20.1911C6.49648 19.9247 6.59076 19.6667 6.76394 19.469C6.93712 19.2713 7.17639 19.1484 7.43375 19.125C7.57054 19.1157 7.70773 19.1354 7.83681 19.183C7.96589 19.2306 8.08409 19.3051 8.18409 19.4018C8.28408 19.4985 8.36372 19.6154 8.41807 19.7452C8.47241 19.875 8.5003 20.0149 8.5 20.1563V22.2188ZM8.5 15C8.5003 15.1414 8.47241 15.2813 8.41807 15.4111C8.36372 15.5409 8.28408 15.6578 8.18409 15.7545C8.08409 15.8512 7.96589 15.9257 7.83681 15.9733C7.70773 16.0209 7.57054 16.0407 7.43375 16.0313C7.17617 16.0079 6.93672 15.8848 6.76351 15.6868C6.5903 15.4888 6.49616 15.2306 6.5 14.9639V12.9723C6.49648 12.7059 6.59076 12.448 6.76394 12.2503C6.93712 12.0526 7.17639 11.9297 7.43375 11.9063C7.57054 11.8969 7.70773 11.9167 7.83681 11.9643C7.96589 12.0119 8.08409 12.0864 8.18409 12.1831C8.28408 12.2798 8.36372 12.3967 8.41807 12.5264C8.47241 12.6562 8.5003 12.7962 8.5 12.9375V15ZM13.5 22.2188C13.5003 22.3602 13.4724 22.5001 13.4181 22.6299C13.3637 22.7597 13.2841 22.8765 13.1841 22.9732C13.0841 23.07 12.9659 23.1444 12.8368 23.192C12.7077 23.2397 12.5705 23.2594 12.4338 23.25C12.1765 23.2269 11.9372 23.1043 11.764 22.9068C11.5908 22.7093 11.4965 22.4515 11.5 22.1853V20.1911C11.4968 19.9249 11.5912 19.6673 11.7644 19.4698C11.9375 19.2724 12.1766 19.1497 12.4338 19.1263C12.5705 19.117 12.7077 19.1367 12.8368 19.1843C12.9659 19.2319 13.0841 19.3064 13.1841 19.4031C13.2841 19.4998 13.3637 19.6167 13.4181 19.7465C13.4724 19.8763 13.5003 20.0162 13.5 20.1576V22.2188ZM13.5 15C13.5003 15.1414 13.4724 15.2813 13.4181 15.4111C13.3637 15.5409 13.2841 15.6578 13.1841 15.7545C13.0841 15.8512 12.9659 15.9257 12.8368 15.9733C12.7077 16.0209 12.5705 16.0407 12.4338 16.0313C12.1766 16.0079 11.9375 15.8852 11.7644 15.6878C11.5912 15.4903 11.4968 15.2327 11.5 14.9665V12.9723C11.4968 12.7062 11.5912 12.4485 11.7644 12.2511C11.9375 12.0537 12.1766 11.931 12.4338 11.9076C12.5705 11.8982 12.7077 11.9179 12.8368 11.9656C12.9659 12.0132 13.0841 12.0877 13.1841 12.1844C13.2841 12.2811 13.3637 12.3979 13.4181 12.5277C13.4724 12.6575 13.5003 12.7975 13.5 12.9388V15Z" fill="url(#paint0_linear_1400_33451)"/>
<defs>
<linearGradient id="paint0_linear_1400_33451" x1="28.6739" y1="1.31085" x2="6.90014" y2="14.6773" gradientUnits="userSpaceOnUse">
<stop stop-color="#0396EA"/>
<stop offset="1" stop-color="#694491"/>
</linearGradient>
</defs>
</svg>
