<svg width="25" height="26" viewBox="0 0 25 26" fill="none" xmlns="http://www.w3.org/2000/svg">
<path d="M25 12.9999C25.0001 15.417 24.3137 17.7812 23.0257 19.8006C21.7377 21.82 19.9044 23.4062 17.7522 24.3634C15.6 25.3206 13.2231 25.6069 10.9149 25.1869C8.60674 24.767 6.46835 23.6591 4.76375 22.0001C4.66821 21.907 4.5914 21.7954 4.53768 21.6717C4.48397 21.548 4.45441 21.4145 4.45069 21.279C4.44698 21.1435 4.46918 21.0086 4.51603 20.882C4.56288 20.7553 4.63347 20.6394 4.72375 20.5409C4.90609 20.3419 5.1576 20.2258 5.42297 20.2181C5.55436 20.2142 5.6852 20.2371 5.80802 20.2854C5.93083 20.3338 6.04321 20.4065 6.13875 20.4996C7.56843 21.8906 9.36387 22.8162 11.3007 23.1608C13.2376 23.5054 15.23 23.2538 17.029 22.4374C18.828 21.6209 20.3538 20.2759 21.4158 18.5703C22.4777 16.8647 23.0287 14.8742 22.9999 12.8475C22.9712 10.8208 22.3639 8.84778 21.254 7.17498C20.1441 5.50218 18.5807 4.20377 16.7593 3.44199C14.9379 2.68021 12.9392 2.48885 11.013 2.8918C9.08673 3.29476 7.31833 4.27417 5.92875 5.70765C5.4875 6.16785 5.0725 6.62031 4.66875 7.07019L6.7075 9.17652C6.84751 9.32075 6.94288 9.50457 6.98153 9.70472C7.02018 9.90487 7.00038 10.1123 6.92462 10.3009C6.84887 10.4894 6.72058 10.6505 6.55598 10.7638C6.39139 10.8771 6.1979 10.9375 6 10.9374H1C0.734784 10.9374 0.48043 10.8287 0.292893 10.6353C0.105357 10.4419 3.09801e-07 10.1796 3.09801e-07 9.90613V4.74988C-0.000155428 4.5458 0.0584092 4.34626 0.16828 4.17652C0.278151 4.00679 0.434387 3.87448 0.61721 3.79636C0.800033 3.71824 1.00122 3.69782 1.19531 3.73768C1.38939 3.77754 1.56764 3.87589 1.7075 4.02027L3.25 5.61355C3.6525 5.16367 4.0675 4.71121 4.5075 4.25359C6.18511 2.52061 8.32356 1.33985 10.6522 0.860752C12.9808 0.381657 15.3949 0.62577 17.589 1.56219C19.783 2.49862 21.6583 4.08525 22.9775 6.12127C24.2968 8.15729 25.0006 10.5512 25 12.9999ZM13 5.78113C12.7348 5.78113 12.4804 5.88978 12.2929 6.08318C12.1054 6.27657 12 6.53888 12 6.81238V12.9999C11.9999 13.1779 12.0446 13.3529 12.1296 13.5079C12.2146 13.6629 12.337 13.7925 12.485 13.8842L17.485 16.9779C17.5976 17.0477 17.7224 17.0939 17.8524 17.1139C17.9823 17.1339 18.1147 17.1273 18.2422 17.0945C18.3696 17.0617 18.4896 17.0033 18.5951 16.9227C18.7007 16.8421 18.7899 16.7409 18.8575 16.6247C18.9251 16.5086 18.9699 16.3799 18.9893 16.2459C19.0087 16.1119 19.0023 15.9753 18.9705 15.8439C18.9387 15.7124 18.8821 15.5888 18.8039 15.4799C18.7258 15.371 18.6276 15.2791 18.515 15.2093L14 12.4159V6.81238C14 6.53888 13.8946 6.27657 13.7071 6.08318C13.5196 5.88978 13.2652 5.78113 13 5.78113Z" fill="url(#paint0_linear_1400_20878)"/>
<defs>
<linearGradient id="paint0_linear_1400_20878" x1="23.8932" y1="1.30918" x2="4.77968" y2="11.8973" gradientUnits="userSpaceOnUse">
<stop stop-color="#0396EA"/>
<stop offset="1" stop-color="#694491"/>
</linearGradient>
</defs>
</svg>
